999
dxfrw 0.5.4
0
SECTION
2
HEADER
9
$ACADVER
1
AC1021
9
$HANDSEED
5
20000
9
$DWGCODEPAGE
3
ANSI_1252
9
$INSBASE
10
0
20
0
30
0
9
$EXTMIN
10
1e+020
20
1e+020
30
1e+020
9
$EXTMAX
10
-1e+020
20
-1e+020
30
-1e+020
9
$LIMMIN
10
0
20
0
9
$LIMMAX
10
420
20
297
9
$ORTHOMODE
70
0
9
$LTSCALE
40
1
9
$TEXTSTYLE
7
STANDARD
9
$DIMASZ
40
2.5
9
$DIMEXO
40
0.625
9
$DIMEXE
40
1.25
9
$DIMTXT
40
2.5
9
$DIMTSZ
40
0
9
$DIMAUNIT
70
0
9
$DIMADEC
70
0
9
$DIMSTYLE
2
STANDARD
9
$DIMGAP
40
0.625
9
$DIMTIH
70
0
9
$LUNITS
70
2
9
$LUPREC
70
4
9
$AUNITS
70
0
9
$AUPREC
70
2
9
$SPLINESEGS
70
8
9
$GRIDMODE
70
1
9
$SNAPSTYLE
70
0
9
$PINSBASE
10
0
20
0
30
0
9
$PLIMMIN
10
0
20
0
9
$PLIMMAX
10
8.26771653543
20
11.6929133858
9
$INSUNITS
70
0
9
$PSVPSCALE
40
0
0
ENDSEC
0
SECTION
2
CLASSES
0
ENDSEC
0
SECTION
2
TABLES
0
TABLE
2
VPORT
5
8
330
0
100
AcDbSymbolTable
70
1
0
VPORT
5
31
330
2
100
AcDbSymbolTableRecord
100
AcDbViewportTableRecord
2
*ACTIVE
70
0
10
0
20
0
11
1
21
1
12
129.21875
22
65.7812500001
13
0
23
0
14
10
24
10
15
10
25
10
16
0
26
0
36
1
17
0
27
0
37
0
40
143.125
41
2.12227074236
42
50
43
0
44
0
50
0
51
0
71
0
72
100
73
1
74
3
75
0
76
1
77
0
78
0
281
0
65
1
110
0
120
0
130
0
111
1
121
0
131
0
112
0
122
1
132
0
79
0
146
0
348
10020
60
7
61
5
292
1
282
1
141
0
142
0
63
250
421
3358443
0
ENDTAB
0
TABLE
2
LTYPE
5
5
330
0
100
AcDbSymbolTable
70
4
0
LTYPE
5
14
330
5
100
AcDbSymbolTableRecord
100
AcDbLinetypeTableRecord
2
ByBlock
70
0
3

72
65
73
0
40
0
0
LTYPE
5
15
330
5
100
AcDbSymbolTableRecord
100
AcDbLinetypeTableRecord
2
ByLayer
70
0
3

72
65
73
0
40
0
0
LTYPE
5
16
330
5
100
AcDbSymbolTableRecord
100
AcDbLinetypeTableRecord
2
Continuous
70
0
3
Solid line
72
65
73
0
40
0
0
LTYPE
5
32
330
5
100
AcDbSymbolTableRecord
100
AcDbLinetypeTableRecord
2
DOT
70
0
3
Dot . . . . . . . . . . . . . . . . . . . . . .
72
65
73
2
40
6.35
49
0
74
0
49
-6.35
74
0
0
LTYPE
5
33
330
5
100
AcDbSymbolTableRecord
100
AcDbLinetypeTableRecord
2
DOT2
70
0
3
Dot (.5x) .....................................
72
65
73
2
40
3.175
49
0
74
0
49
-3.175
74
0
0
LTYPE
5
34
330
5
100
AcDbSymbolTableRecord
100
AcDbLinetypeTableRecord
2
DOTX2
70
0
3
Dot (2x) .  .  .  .  .  .  .  .  .  .  .  .  .
72
65
73
2
40
12.7
49
0
74
0
49
-12.7
74
0
0
LTYPE
5
35
330
5
100
AcDbSymbolTableRecord
100
AcDbLinetypeTableRecord
2
DASHED
70
0
3
Dot . . . . . . . . . . . . . . . . . . . . . .
72
65
73
2
40
19.05
49
12.7
74
0
49
-6.35
74
0
0
LTYPE
5
36
330
5
100
AcDbSymbolTableRecord
100
AcDbLinetypeTableRecord
2
DASHED2
70
0
3
Dashed (.5x) _ _ _ _ _ _ _ _ _ _ _ _ _ _ _ _ _
72
65
73
2
40
9.525
49
6.35
74
0
49
-3.175
74
0
0
LTYPE
5
37
330
5
100
AcDbSymbolTableRecord
100
AcDbLinetypeTableRecord
2
DASHEDX2
70
0
3
Dashed (2x) ____  ____  ____  ____  ____  ___
72
65
73
2
40
38.1
49
25.4
74
0
49
-12.7
74
0
0
LTYPE
5
38
330
5
100
AcDbSymbolTableRecord
100
AcDbLinetypeTableRecord
2
DASHDOT
70
0
3
Dash dot __ . __ . __ . __ . __ . __ . __ . __
72
65
73
4
40
25.4
49
12.7
74
0
49
-6.35
74
0
49
0
74
0
49
-6.35
74
0
0
LTYPE
5
39
330
5
100
AcDbSymbolTableRecord
100
AcDbLinetypeTableRecord
2
DASHDOT2
70
0
3
Dash dot (.5x) _._._._._._._._._._._._._._._.
72
65
73
4
40
12.7
49
6.35
74
0
49
-3.175
74
0
49
0
74
0
49
-3.175
74
0
0
LTYPE
5
3A
330
5
100
AcDbSymbolTableRecord
100
AcDbLinetypeTableRecord
2
DASHDOTX2
70
0
3
Dash dot (2x) ____  .  ____  .  ____  .  ___
72
65
73
4
40
50.8
49
25.4
74
0
49
-12.7
74
0
49
0
74
0
49
-12.7
74
0
0
LTYPE
5
3B
330
5
100
AcDbSymbolTableRecord
100
AcDbLinetypeTableRecord
2
DIVIDE
70
0
3
Divide ____ . . ____ . . ____ . . ____ . . ____
72
65
73
6
40
31.75
49
12.7
74
0
49
-6.35
74
0
49
0
74
0
49
-6.35
74
0
49
0
74
0
49
-6.35
74
0
0
LTYPE
5
3C
330
5
100
AcDbSymbolTableRecord
100
AcDbLinetypeTableRecord
2
DIVIDE2
70
0
3
Divide (.5x) __..__..__..__..__..__..__..__.._
72
65
73
6
40
15.875
49
6.35
74
0
49
-3.175
74
0
49
0
74
0
49
-3.175
74
0
49
0
74
0
49
-3.175
74
0
0
LTYPE
5
3D
330
5
100
AcDbSymbolTableRecord
100
AcDbLinetypeTableRecord
2
DIVIDEX2
70
0
3
Divide (2x) ________  .  .  ________  .  .  _
72
65
73
6
40
63.5
49
25.4
74
0
49
-12.7
74
0
49
0
74
0
49
-12.7
74
0
49
0
74
0
49
-12.7
74
0
0
LTYPE
5
3E
330
5
100
AcDbSymbolTableRecord
100
AcDbLinetypeTableRecord
2
BORDER
70
0
3
Border __ __ . __ __ . __ __ . __ __ . __ __ .
72
65
73
6
40
44.45
49
12.7
74
0
49
-6.35
74
0
49
12.7
74
0
49
-6.35
74
0
49
0
74
0
49
-6.35
74
0
0
LTYPE
5
3F
330
5
100
AcDbSymbolTableRecord
100
AcDbLinetypeTableRecord
2
BORDER2
70
0
3
Border (.5x) __.__.__.__.__.__.__.__.__.__.__.
72
65
73
6
40
22.225
49
6.35
74
0
49
-3.175
74
0
49
6.35
74
0
49
-3.175
74
0
49
0
74
0
49
-3.175
74
0
0
LTYPE
5
40
330
5
100
AcDbSymbolTableRecord
100
AcDbLinetypeTableRecord
2
BORDERX2
70
0
3
Border (2x) ____  ____  .  ____  ____  .  ___
72
65
73
6
40
88.9
49
25.4
74
0
49
-12.7
74
0
49
25.4
74
0
49
-12.7
74
0
49
0
74
0
49
-12.7
74
0
0
LTYPE
5
41
330
5
100
AcDbSymbolTableRecord
100
AcDbLinetypeTableRecord
2
CENTER
70
0
3
Center ____ _ ____ _ ____ _ ____ _ ____ _ ____
72
65
73
4
40
50.8
49
31.75
74
0
49
-6.35
74
0
49
6.35
74
0
49
-6.35
74
0
0
LTYPE
5
42
330
5
100
AcDbSymbolTableRecord
100
AcDbLinetypeTableRecord
2
CENTER2
70
0
3
Center (.5x) ___ _ ___ _ ___ _ ___ _ ___ _ ___
72
65
73
4
40
28.575
49
19.05
74
0
49
-3.175
74
0
49
3.175
74
0
49
-3.175
74
0
0
LTYPE
5
43
330
5
100
AcDbSymbolTableRecord
100
AcDbLinetypeTableRecord
2
CENTERX2
70
0
3
Center (2x) ________  __  ________  __  _____
72
65
73
4
40
101.6
49
63.5
74
0
49
-12.7
74
0
49
12.7
74
0
49
-12.7
74
0
0
ENDTAB
0
TABLE
2
LAYER
5
2
330
0
100
AcDbSymbolTable
70
1
0
LAYER
5
10
330
2
100
AcDbSymbolTableRecord
100
AcDbLayerTableRecord
2
0
70
0
62
7
6
CONTINUOUS
370
0
390
F
0
LAYER
5
44
330
2
100
AcDbSymbolTableRecord
100
AcDbLayerTableRecord
2
1
70
0
62
3
6
CONTINUOUS
370
0
390
F
0
LAYER
5
45
330
2
100
AcDbSymbolTableRecord
100
AcDbLayerTableRecord
2
2
70
0
62
6
6
CONTINUOUS
370
0
390
F
0
LAYER
5
46
330
2
100
AcDbSymbolTableRecord
100
AcDbLayerTableRecord
2
3
70
0
62
1
6
CONTINUOUS
370
0
390
F
0
LAYER
5
47
330
2
100
AcDbSymbolTableRecord
100
AcDbLayerTableRecord
2
4
70
0
62
4
6
CONTINUOUS
370
0
390
F
0
LAYER
5
48
330
2
100
AcDbSymbolTableRecord
100
AcDbLayerTableRecord
2
5
70
0
62
252
6
CONTINUOUS
370
0
390
F
0
LAYER
5
49
330
2
100
AcDbSymbolTableRecord
100
AcDbLayerTableRecord
2
6
70
0
62
2
6
CONTINUOUS
370
0
390
F
0
LAYER
5
4A
330
2
100
AcDbSymbolTableRecord
100
AcDbLayerTableRecord
2
7
70
0
62
5
6
CONTINUOUS
370
0
390
F
0
LAYER
5
4B
330
2
100
AcDbSymbolTableRecord
100
AcDbLayerTableRecord
2
8
70
0
62
5
6
CONTINUOUS
370
0
390
F
0
ENDTAB
0
TABLE
2
STYLE
5
3
330
0
100
AcDbSymbolTable
70
3
0
STYLE
5
4C
330
2
100
AcDbSymbolTableRecord
100
AcDbTextStyleTableRecord
2
Standard
70
0
40
0
41
1
50
0
71
0
42
1
3
txt
4

0
ENDTAB
0
TABLE
2
VIEW
5
6
330
0
100
AcDbSymbolTable
70
0
0
ENDTAB
0
TABLE
2
UCS
5
7
330
0
100
AcDbSymbolTable
70
0
0
ENDTAB
0
TABLE
2
APPID
5
9
330
0
100
AcDbSymbolTable
70
1
0
APPID
5
12
330
9
100
AcDbSymbolTableRecord
100
AcDbRegAppTableRecord
2
ACAD
70
0
0
ENDTAB
0
TABLE
2
DIMSTYLE
5
A
330
0
100
AcDbSymbolTable
70
1
100
AcDbDimStyleTable
71
1
0
DIMSTYLE
105
4D
330
A
100
AcDbSymbolTableRecord
100
AcDbDimStyleTableRecord
2
Standard
70
0
40
1
41
2.5
42
0.625
43
0.38
44
1.25
45
0
46
0
47
0
48
0
140
2.5
141
0.09
142
0
143
25.4
144
1
145
0
146
1
147
0.625
148
0
71
0
72
0
73
0
74
1
75
0
76
0
77
0
78
0
79
0
170
0
171
2
172
0
173
0
174
0
175
0
176
0
177
0
178
0
179
0
271
4
272
4
273
2
274
2
275
0
276
0
277
2
278
46
279
0
280
0
281
0
282
0
283
1
284
0
285
0
286
0
288
0
289
3
340
Standard
341

371
-2
372
-2
0
ENDTAB
0
TABLE
2
BLOCK_RECORD
5
1
330
0
100
AcDbSymbolTable
70
2
0
BLOCK_RECORD
5
1F
330
1
100
AcDbSymbolTableRecord
100
AcDbBlockTableRecord
2
*Model_Space
70
0
280
1
281
0
0
BLOCK_RECORD
5
1E
330
1
100
AcDbSymbolTableRecord
100
AcDbBlockTableRecord
2
*Paper_Space
70
0
280
1
281
0
0
ENDTAB
0
ENDSEC
0
SECTION
2
BLOCKS
0
BLOCK
5
20
330
1F
100
AcDbEntity
8
0
100
AcDbBlockBegin
2
*Model_Space
70
0
10
0
20
0
30
0
3
*Model_Space
1

0
ENDBLK
5
21
330
1F
100
AcDbEntity
8
0
100
AcDbBlockEnd
0
BLOCK
5
1C
330
1B
100
AcDbEntity
8
0
100
AcDbBlockBegin
2
*Paper_Space
70
0
10
0
20
0
30
0
3
*Paper_Space
1

0
ENDBLK
5
1D
330
1F
100
AcDbEntity
8
0
100
AcDbBlockEnd
0
ENDSEC
0
SECTION
2
ENTITIES
0
LINE
5
4E
100
AcDbEntity
8
0
6
ByLayer
62
256
370
-1
100
AcDbLine
10
10
20
110
11
10
21
-30
0
LINE
5
4F
100
AcDbEntity
8
0
6
ByLayer
62
256
370
-1
100
AcDbLine
10
0
20
10
11
310
21
10
0
LINE
5
50
100
AcDbEntity
8
0
6
ByLayer
62
256
370
-1
100
AcDbLine
10
3.03090072571e-015
20
59.5
11
310
21
59.5
0
LINE
5
51
100
AcDbEntity
8
0
6
ByLayer
62
256
370
-1
100
AcDbLine
10
154.5
20
110
11
154.5
21
-30
0
LINE
5
52
100
AcDbEntity
8
0
6
ByLayer
62
256
370
-1
100
AcDbLine
10
157.5
20
110
11
157.5
21
-30
0
LINE
5
53
100
AcDbEntity
8
0
6
ByLayer
62
256
370
-1
100
AcDbLine
10
7
20
110
11
7
21
-30
0
LINE
5
54
100
AcDbEntity
8
0
6
ByLayer
62
256
370
-1
100
AcDbLine
10
3.21459167878e-015
20
62.5
11
310
21
62.5
0
LINE
5
55
100
AcDbEntity
8
0
6
ByLayer
62
256
370
-1
100
AcDbLine
10
-5.5107285922e-016
20
7
11
310
21
7
0
LINE
5
56
100
AcDbEntity
8
0
6
ByLayer
62
256
370
-1
100
AcDbLine
10
-8.54162931791e-015
20
-1.5
11
310
21
-1.5
0
LINE
5
57
100
AcDbEntity
8
1
6
ByLayer
62
256
370
-1
100
AcDbLine
10
5
20
64.5
11
5
21
-3.5
0
LINE
5
58
100
AcDbEntity
8
1
6
ByLayer
62
256
370
-1
100
AcDbLine
10
5
20
-3.5
11
159.5
21
-3.5
0
LINE
5
59
100
AcDbEntity
8
1
6
ByLayer
62
256
370
-1
100
AcDbLine
10
5
20
64.5
11
159.5
21
64.5
0
LINE
5
5A
100
AcDbEntity
8
1
6
ByLayer
62
256
370
-1
100
AcDbLine
10
159.5
20
64.5
11
159.5
21
-3.5
0
LINE
5
5B
100
AcDbEntity
8
2
6
ByLayer
62
256
370
-1
100
AcDbLine
10
5
20
64.5
11
5
21
-3.5
0
LINE
5
5C
100
AcDbEntity
8
2
6
ByLayer
62
256
370
-1
100
AcDbLine
10
7
20
62.5
11
7
21
-1.5
0
LINE
5
5D
100
AcDbEntity
8
2
6
ByLayer
62
256
370
-1
100
AcDbLine
10
7
20
-1.5
11
157.5
21
-1.5
0
LINE
5
5E
100
AcDbEntity
8
2
6
ByLayer
62
256
370
-1
100
AcDbLine
10
5
20
-3.5
11
159.5
21
-3.5
0
LINE
5
5F
100
AcDbEntity
8
2
6
ByLayer
62
256
370
-1
100
AcDbLine
10
7
20
62.5
11
157.5
21
62.5
0
LINE
5
60
100
AcDbEntity
8
2
6
ByLayer
62
256
370
-1
100
AcDbLine
10
157.5
20
62.5
11
157.5
21
-1.5
0
LINE
5
61
100
AcDbEntity
8
2
6
ByLayer
62
256
370
-1
100
AcDbLine
10
159.5
20
64.5
11
159.5
21
-3.5
0
LINE
5
62
100
AcDbEntity
8
2
6
ByLayer
62
256
370
-1
100
AcDbLine
10
5
20
64.5
11
159.5
21
64.5
0
LINE
5
63
100
AcDbEntity
8
1
6
ByLayer
62
256
370
-1
100
AcDbLine
10
20
20
49.5
11
20
21
8.5
0
LINE
5
64
100
AcDbEntity
8
1
6
ByLayer
62
256
370
-1
100
AcDbLine
10
20
20
8.5
11
119.5
21
8.5
0
LINE
5
65
100
AcDbEntity
8
1
6
ByLayer
62
256
370
-1
100
AcDbLine
10
20
20
49.5
11
119.5
21
49.5
0
LINE
5
66
100
AcDbEntity
8
1
6
ByLayer
62
256
370
-1
100
AcDbLine
10
119.5
20
49.5
11
119.5
21
8.5
0
CIRCLE
5
67
100
AcDbEntity
8
1
6
ByLayer
62
256
370
-1
100
AcDbCircle
10
143.7
20
51.7
40
6.3
0
LINE
5
68
100
AcDbEntity
8
1
6
ByLayer
62
256
370
-1
100
AcDbLine
10
127
20
19
11
127
21
18
0
LINE
5
69
100
AcDbEntity
8
1
6
ByLayer
62
256
370
-1
100
AcDbLine
10
127
20
14
11
127
21
13
0
LINE
5
6A
100
AcDbEntity
8
1
6
ByLayer
62
256
370
-1
100
AcDbLine
10
127
20
18
11
139.917424305
21
18
0
ARC
5
6B
100
AcDbEntity
8
1
6
ByLayer
62
256
370
-1
100
AcDbCircle
10
144.5
20
16
40
5
100
AcDbArc
50
203.578178478
51
156.421821522
0
LINE
5
6C
100
AcDbEntity
8
1
6
ByLayer
62
256
370
-1
100
AcDbLine
10
127
20
14
11
139.917424305
21
14
0
LINE
5
6D
100
AcDbEntity
8
1
6
ByLayer
62
256
370
-1
100
AcDbLine
10
127
20
19
11
139.303847577
21
19
0
ARC
5
6E
100
AcDbEntity
8
1
6
ByLayer
62
256
370
-1
100
AcDbCircle
10
144.5
20
16
40
6
100
AcDbArc
50
210
51
150
0
LINE
5
6F
100
AcDbEntity
8
1
6
ByLayer
62
256
370
-1
100
AcDbLine
10
127
20
13
11
139.303847577
21
13
0
CIRCLE
5
70
100
AcDbEntity
8
1
6
ByLayer
62
256
370
-1
100
AcDbCircle
10
10
20
59.5
40
1.5
0
CIRCLE
5
71
100
AcDbEntity
8
1
6
ByLayer
62
256
370
-1
100
AcDbCircle
10
10
20
10
40
1.5
0
CIRCLE
5
72
100
AcDbEntity
8
1
6
ByLayer
62
256
370
-1
100
AcDbCircle
10
154.5
20
10
40
1.5
0
CIRCLE
5
73
100
AcDbEntity
8
1
6
ByLayer
62
256
370
-1
100
AcDbCircle
10
154.5
20
59.5
40
1.5
0
LINE
5
74
100
AcDbEntity
8
3
6
ByLayer
62
256
370
-1
100
AcDbLine
10
157.5
20
62.5
11
151
21
62.5
0
LINE
5
75
100
AcDbEntity
8
3
6
ByLayer
62
256
370
-1
100
AcDbLine
10
151
20
62.5
11
151
21
56
0
LINE
5
76
100
AcDbEntity
8
3
6
ByLayer
62
256
370
-1
100
AcDbLine
10
151
20
56
11
157.5
21
56
0
LINE
5
77
100
AcDbEntity
8
3
6
ByLayer
62
256
370
-1
100
AcDbLine
10
157.5
20
56
11
157.5
21
62.5
0
LINE
5
78
100
AcDbEntity
8
3
6
ByLayer
62
256
370
-1
100
AcDbLine
10
157.5
20
13
11
157.5
21
7.012876288
0
LINE
5
79
100
AcDbEntity
8
3
6
ByLayer
62
256
370
-1
100
AcDbLine
10
7
20
13
11
7
21
6.979321856
0
LINE
5
7A
100
AcDbEntity
8
3
6
ByLayer
62
256
370
-1
100
AcDbLine
10
7
20
62.5
11
14
21
62.5
0
LINE
5
7B
100
AcDbEntity
8
3
6
ByLayer
62
256
370
-1
100
AcDbLine
10
14
20
62.5
11
14
21
56
0
LINE
5
7C
100
AcDbEntity
8
3
6
ByLayer
62
256
370
-1
100
AcDbLine
10
14
20
56
11
7
21
56
0
LINE
5
7D
100
AcDbEntity
8
3
6
ByLayer
62
256
370
-1
100
AcDbLine
10
7
20
56
11
7
21
62.5
0
CIRCLE
5
7E
100
AcDbEntity
8
3
6
ByLayer
62
256
370
-1
100
AcDbCircle
10
10
20
59.5
40
1.5
0
CIRCLE
5
7F
100
AcDbEntity
8
3
6
ByLayer
62
256
370
-1
100
AcDbCircle
10
154.5
20
59.5
40
1.5
0
CIRCLE
5
80
100
AcDbEntity
8
3
6
ByLayer
62
256
370
-1
100
AcDbCircle
10
154.5
20
10
40
1.5
0
CIRCLE
5
81
100
AcDbEntity
8
3
6
ByLayer
62
256
370
-1
100
AcDbCircle
10
10
20
10
40
1.5
0
CIRCLE
5
82
100
AcDbEntity
8
4
6
ByLayer
62
256
370
-1
100
AcDbCircle
10
144.5
20
16
40
5
0
LINE
5
83
100
AcDbEntity
8
5
6
ByLayer
62
256
370
-1
100
AcDbLine
10
4
20
42.5
11
8
21
42.5
0
LINE
5
84
100
AcDbEntity
8
5
6
ByLayer
62
256
370
-1
100
AcDbLine
10
8
20
42.5
11
8
21
15.5
0
LINE
5
85
100
AcDbEntity
8
5
6
ByLayer
62
256
370
-1
100
AcDbLine
10
4
20
42.5
11
4
21
15.5
0
LINE
5
86
100
AcDbEntity
8
5
6
ByLayer
62
256
370
-1
100
AcDbLine
10
4
20
15.5
11
8
21
15.5
0
LINE
5
87
100
AcDbEntity
8
6
6
ByLayer
62
256
370
-1
100
AcDbLine
10
5
20
64.5
11
159.5
21
64.5
0
LINE
5
88
100
AcDbEntity
8
6
6
ByLayer
62
256
370
-1
100
AcDbLine
10
159.5
20
64.5
11
159.5
21
-3.5
0
LINE
5
89
100
AcDbEntity
8
6
6
ByLayer
62
256
370
-1
100
AcDbLine
10
159.5
20
-3.5
11
5
21
-3.5
0
LINE
5
8A
100
AcDbEntity
8
6
6
ByLayer
62
256
370
-1
100
AcDbLine
10
5
20
-3.5
11
5
21
64.5
0
LINE
5
8B
100
AcDbEntity
8
6
6
ByLayer
62
256
370
-1
100
AcDbLine
10
53
20
41.5
11
53
21
29.5
0
LINE
5
8C
100
AcDbEntity
8
6
6
ByLayer
62
256
370
-1
100
AcDbLine
10
53
20
29.5
11
96.5
21
29.5
0
LINE
5
8D
100
AcDbEntity
8
6
6
ByLayer
62
256
370
-1
100
AcDbLine
10
53
20
41.5
11
96.5
21
41.5
0
LINE
5
8E
100
AcDbEntity
8
6
6
ByLayer
62
256
370
-1
100
AcDbLine
10
96.5
20
41.5
11
96.5
21
29.5
0
CIRCLE
5
8F
100
AcDbEntity
8
8
6
ByLayer
62
256
370
-1
100
AcDbCircle
10
174.000046953
20
59.5
40
1.5
0
CIRCLE
5
90
100
AcDbEntity
8
8
6
ByLayer
62
256
370
-1
100
AcDbCircle
10
174.00001874
20
10
40
1.5
0
ARC
5
91
100
AcDbEntity
8
6
6
ByLayer
62
256
370
-1
100
AcDbCircle
10
20
20
50.5
40
4
100
AcDbArc
50
90
51
270
0
LINE
5
92
100
AcDbEntity
8
6
6
ByLayer
62
256
370
-1
100
AcDbLine
10
24.5
20
54.5
11
20
21
54.5
0
LINE
5
93
100
AcDbEntity
8
6
6
ByLayer
62
256
370
-1
100
AcDbLine
10
24.5
20
46.5
11
20
21
46.5
0
LINE
5
94
100
AcDbEntity
8
6
6
ByLayer
62
256
370
-1
100
AcDbLine
10
24.5
20
54.5
11
24.5
21
46.5
0
CIRCLE
5
95
100
AcDbEntity
8
6
6
ByLayer
62
256
370
-1
100
AcDbCircle
10
10
20
59.5
40
1.5
0
CIRCLE
5
96
100
AcDbEntity
8
6
6
ByLayer
62
256
370
-1
100
AcDbCircle
10
154.5
20
59.5
40
1.5
0
CIRCLE
5
97
100
AcDbEntity
8
6
6
ByLayer
62
256
370
-1
100
AcDbCircle
10
154.5
20
10
40
1.5
0
CIRCLE
5
98
100
AcDbEntity
8
6
6
ByLayer
62
256
370
-1
100
AcDbCircle
10
10
20
10
40
1.5
0
LINE
5
99
100
AcDbEntity
8
7
6
ByLayer
62
256
370
-1
100
AcDbLine
10
172.000058637
20
80.50000057
11
172.000001641
21
-19.49999943
0
ARC
5
9A
100
AcDbEntity
8
7
6
ByLayer
62
256
370
-1
100
AcDbCircle
10
173.000001641
20
-19.5
40
1
100
AcDbArc
50
179.999967344
51
270
0
LINE
5
9B
100
AcDbEntity
8
7
6
ByLayer
62
256
370
-1
100
AcDbLine
10
173.000001641
20
-20.5
11
175
21
-20.5
0
ARC
5
9C
100
AcDbEntity
8
7
6
ByLayer
62
256
370
-1
100
AcDbCircle
10
175
20
-19.5
40
1
100
AcDbArc
50
270
51
0
0
LINE
5
9D
100
AcDbEntity
8
7
6
ByLayer
62
256
370
-1
100
AcDbLine
10
176
20
-19.5
11
176
21
-14.4999996735
0
ARC
5
9E
100
AcDbEntity
8
7
6
ByLayer
62
256
370
-1
100
AcDbCircle
10
180
20
-14.5
40
4
100
AcDbArc
50
331.044975628
51
179.999995324
0
LINE
5
9F
100
AcDbEntity
8
7
6
ByLayer
62
256
370
-1
100
AcDbLine
10
183.5
20
-16.4364916731
11
183.5
21
-18.5
0
ARC
5
A0
100
AcDbEntity
8
7
6
ByLayer
62
256
370
-1
100
AcDbCircle
10
185.5
20
-18.5
40
2
100
AcDbArc
50
180
51
270
0
LINE
5
A1
100
AcDbEntity
8
7
6
ByLayer
62
256
370
-1
100
AcDbLine
10
185.5
20
-20.5
11
187
21
-20.5
0
ARC
5
A2
100
AcDbEntity
8
7
6
ByLayer
62
256
370
-1
100
AcDbCircle
10
187
20
-19.5
40
1
100
AcDbArc
50
270
51
0
0
LINE
5
A3
100
AcDbEntity
8
7
6
ByLayer
62
256
370
-1
100
AcDbLine
10
188
20
-19.5
11
188
21
-14.5
0
ARC
5
A4
100
AcDbEntity
8
7
6
ByLayer
62
256
370
-1
100
AcDbCircle
10
180
20
-14.5
40
8
100
AcDbArc
50
5.08888749034e-014
51
109.471157655
0
ARC
5
A5
100
AcDbEntity
8
7
6
ByLayer
62
256
370
-1
100
AcDbCircle
10
177.000009327
20
-6.01471532817
40
1.00000000001
100
AcDbArc
50
179.999967344
51
289.471157656
0
LINE
5
A6
100
AcDbEntity
8
7
6
ByLayer
62
256
370
-1
100
AcDbLine
10
176.000009327
20
-6.01471475821
11
176.000050951
21
67.0147011819
0
ARC
5
A7
100
AcDbEntity
8
7
6
ByLayer
62
256
370
-1
100
AcDbCircle
10
177.000050951
20
67.0147006119
40
0.99999999999
100
AcDbArc
50
70.5291234061
51
179.999967342
0
ARC
5
A8
100
AcDbEntity
8
7
6
ByLayer
62
256
370
-1
100
AcDbCircle
10
180
20
75.5000000001
40
8.00000000014
100
AcDbArc
50
250.529123407
51
360
0
LINE
5
A9
100
AcDbEntity
8
7
6
ByLayer
62
256
370
-1
100
AcDbLine
10
188
20
75.5
11
188
21
80.5
0
ARC
5
AA
100
AcDbEntity
8
7
6
ByLayer
62
256
370
-1
100
AcDbCircle
10
187
20
80.5
40
1
100
AcDbArc
50
0
51
90
0
LINE
5
AB
100
AcDbEntity
8
7
6
ByLayer
62
256
370
-1
100
AcDbLine
10
187
20
81.5
11
185.500058067
21
81.5
0
ARC
5
AC
100
AcDbEntity
8
7
6
ByLayer
62
256
370
-1
100
AcDbCircle
10
185.500058067
20
79.5
40
2
100
AcDbArc
50
90
51
179.999967343
0
LINE
5
AD
100
AcDbEntity
8
7
6
ByLayer
62
256
370
-1
100
AcDbLine
10
183.500058067
20
79.5000011399
11
183.500056891
21
77.4363888447
0
ARC
5
AE
100
AcDbEntity
8
7
6
ByLayer
62
256
370
-1
100
AcDbCircle
10
179.999999543
20
75.5000017682
40
3.99999954336
100
AcDbArc
50
180
51
28.9533157355
0
LINE
5
AF
100
AcDbEntity
8
7
6
ByLayer
62
256
370
-1
100
AcDbLine
10
176
20
75.5000017682
11
176.000058637
21
80.49999943
0
ARC
5
B0
100
AcDbEntity
8
7
6
ByLayer
62
256
370
-1
100
AcDbCircle
10
175.000058637
20
80.5
40
1
100
AcDbArc
50
359.999967343
51
90
0
LINE
5
B1
100
AcDbEntity
8
7
6
ByLayer
62
256
370
-1
100
AcDbLine
10
175.000058637
20
81.5
11
173.000058637
21
81.5
0
ARC
5
B2
100
AcDbEntity
8
7
6
ByLayer
62
256
370
-1
100
AcDbCircle
10
173.000058637
20
80.5
40
0.999999999986
100
AcDbArc
50
89.9999999992
51
179.999967342
0
CIRCLE
5
B3
100
AcDbEntity
8
1
6
ByLayer
62
256
370
-1
100
AcDbCircle
10
144.8
20
32.5
40
4
0
LINE
5
B4
100
AcDbEntity
8
3
6
ByLayer
62
256
370
-1
100
AcDbLine
10
14
20
13
11
7
21
13
0
LINE
5
B5
100
AcDbEntity
8
3
6
ByLayer
62
256
370
-1
100
AcDbLine
10
14
20
6.979321856
11
14
21
13
0
LINE
5
B6
100
AcDbEntity
8
3
6
ByLayer
62
256
370
-1
100
AcDbLine
10
7
20
6.979321856
11
14
21
6.979321856
0
LINE
5
B7
100
AcDbEntity
8
3
6
ByLayer
62
256
370
-1
100
AcDbLine
10
151
20
13
11
157.5
21
13
0
LINE
5
B8
100
AcDbEntity
8
3
6
ByLayer
62
256
370
-1
100
AcDbLine
10
151
20
7.012876288
11
151
21
13
0
LINE
5
B9
100
AcDbEntity
8
3
6
ByLayer
62
256
370
-1
100
AcDbLine
10
157.5
20
7.012876288
11
151
21
7.012876288
0
ENDSEC
0
SECTION
2
OBJECTS
0
DICTIONARY
5
C
330
0
100
AcDbDictionary
281
1
3
ACAD_GROUP
350
D
0
DICTIONARY
5
D
330
C
100
AcDbDictionary
281
1
0
ENDSEC
0
EOF
