solid OpenSCAD_Model
  facet normal 0.965138 0.101441 0.241285
    outer loop
      vertex 9.78148 2.07912 0
      vertex 7 0 12
      vertex 10 0 0
    endloop
  endfacet
  facet normal 0.922957 0.299887 0.241285
    outer loop
      vertex 9.13545 4.06737 0
      vertex 6.84703 1.45538 12
      vertex 9.78148 2.07912 0
    endloop
  endfacet
  facet normal 0.394719 0.886554 0.241285
    outer loop
      vertex 3.09017 9.51056 0
      vertex 2.16312 6.6574 12
      vertex 3.5 6.06218 12
    endloop
  endfacet
  facet normal 0.840438 -0.485227 0.241285
    outer loop
      vertex 9.13545 -4.06737 0
      vertex 6.39482 -2.84716 12
      vertex 8.09017 -5.87785 0
    endloop
  endfacet
  facet normal -0.840438 0.485227 0.241285
    outer loop
      vertex -8.09017 5.87785 0
      vertex -9.13545 4.06737 0
      vertex -6.39482 2.84716 12
    endloop
  endfacet
  facet normal -0.39472 0.886554 0.241285
    outer loop
      vertex -3.09017 9.51056 0
      vertex -5 8.66025 0
      vertex -3.5 6.06218 12
    endloop
  endfacet
  facet normal -0.721188 0.649361 0.241285
    outer loop
      vertex -4.68391 5.20201 12
      vertex -8.09017 5.87785 0
      vertex -5.66312 4.1145 12
    endloop
  endfacet
  facet normal -0.965138 0.101441 0.241285
    outer loop
      vertex -9.78148 2.07912 0
      vertex -10 0 0
      vertex -7 0 12
    endloop
  endfacet
  facet normal -0.201769 0.949248 0.241285
    outer loop
      vertex -1.04528 9.94522 0
      vertex -3.09017 9.51056 0
      vertex -0.731699 6.96165 12
    endloop
  endfacet
  facet normal 0.394719 0.886554 0.241285
    outer loop
      vertex 5 8.66025 0
      vertex 3.09017 9.51056 0
      vertex 3.5 6.06218 12
    endloop
  endfacet
  facet normal 0.840438 0.485227 0.241285
    outer loop
      vertex 8.09017 5.87785 0
      vertex 6.39482 2.84716 12
      vertex 9.13545 4.06737 0
    endloop
  endfacet
  facet normal 0.721188 0.649361 0.241285
    outer loop
      vertex 8.09017 5.87785 0
      vertex 4.68391 5.20201 12
      vertex 5.66312 4.1145 12
    endloop
  endfacet
  facet normal 0.721188 -0.649361 0.241285
    outer loop
      vertex 5.66312 -4.1145 12
      vertex 4.68391 -5.20201 12
      vertex 8.09017 -5.87785 0
    endloop
  endfacet
  facet normal 0.965138 -0.101441 0.241285
    outer loop
      vertex 10 0 0
      vertex 7 0 12
      vertex 9.78148 -2.07912 0
    endloop
  endfacet
  facet normal -0.721188 0.649361 0.241285
    outer loop
      vertex -6.69131 7.43145 0
      vertex -8.09017 5.87785 0
      vertex -4.68391 5.20201 12
    endloop
  endfacet
  facet normal -0.922957 0.299887 0.241285
    outer loop
      vertex -9.13545 4.06737 0
      vertex -9.78148 2.07912 0
      vertex -6.84703 1.45538 12
    endloop
  endfacet
  facet normal -0.965138 0.101441 0.241285
    outer loop
      vertex -6.84703 1.45538 12
      vertex -9.78148 2.07912 0
      vertex -7 0 12
    endloop
  endfacet
  facet normal -0.721188 -0.649361 0.241285
    outer loop
      vertex -4.68391 -5.20201 12
      vertex -8.09017 -5.87785 0
      vertex -6.69131 -7.43145 0
    endloop
  endfacet
  facet normal -0.840438 -0.485227 0.241285
    outer loop
      vertex -6.39482 -2.84716 12
      vertex -9.13545 -4.06737 0
      vertex -8.09017 -5.87785 0
    endloop
  endfacet
  facet normal -0.570419 -0.785114 0.241285
    outer loop
      vertex -4.68391 -5.20201 12
      vertex -6.69131 -7.43145 0
      vertex -3.5 -6.06218 12
    endloop
  endfacet
  facet normal -0.201769 -0.949248 0.241285
    outer loop
      vertex -0.731699 -6.96165 12
      vertex -3.09017 -9.51056 0
      vertex -1.04528 -9.94522 0
    endloop
  endfacet
  facet normal 0.721188 -0.649361 0.241285
    outer loop
      vertex 8.09017 -5.87785 0
      vertex 4.68391 -5.20201 12
      vertex 6.69131 -7.43145 0
    endloop
  endfacet
  facet normal 0.201769 0.949248 0.241285
    outer loop
      vertex 3.09017 9.51056 0
      vertex 0.731699 6.96165 12
      vertex 2.16312 6.6574 12
    endloop
  endfacet
  facet normal -0.394719 0.886554 0.241285
    outer loop
      vertex -3.09017 9.51056 0
      vertex -3.5 6.06218 12
      vertex -2.16312 6.6574 12
    endloop
  endfacet
  facet normal -0.201769 0.949248 0.241285
    outer loop
      vertex -0.731699 6.96165 12
      vertex -3.09017 9.51056 0
      vertex -2.16312 6.6574 12
    endloop
  endfacet
  facet normal -0.570419 0.785114 0.241285
    outer loop
      vertex -5 8.66025 0
      vertex -6.69131 7.43145 0
      vertex -3.5 6.06218 12
    endloop
  endfacet
  facet normal -0.570419 0.785114 0.241285
    outer loop
      vertex -3.5 6.06218 12
      vertex -6.69131 7.43145 0
      vertex -4.68391 5.20201 12
    endloop
  endfacet
  facet normal 0.201769 0.949248 0.241285
    outer loop
      vertex 1.04528 9.94522 0
      vertex 0.731699 6.96165 12
      vertex 3.09017 9.51056 0
    endloop
  endfacet
  facet normal 0.721188 0.649361 0.241285
    outer loop
      vertex 6.69131 7.43145 0
      vertex 4.68391 5.20201 12
      vertex 8.09017 5.87785 0
    endloop
  endfacet
  facet normal 0.570419 0.785114 0.241285
    outer loop
      vertex 6.69131 7.43145 0
      vertex 3.5 6.06218 12
      vertex 4.68391 5.20201 12
    endloop
  endfacet
  facet normal 0.570419 0.785114 0.241285
    outer loop
      vertex 5 8.66025 0
      vertex 3.5 6.06218 12
      vertex 6.69131 7.43145 0
    endloop
  endfacet
  facet normal 0.922957 0.299887 0.241285
    outer loop
      vertex 9.13545 4.06737 0
      vertex 6.39482 2.84716 12
      vertex 6.84703 1.45538 12
    endloop
  endfacet
  facet normal 0.840438 -0.485227 0.241285
    outer loop
      vertex 6.39482 -2.84716 12
      vertex 5.66312 -4.1145 12
      vertex 8.09017 -5.87785 0
    endloop
  endfacet
  facet normal -0.840438 0.485227 0.241285
    outer loop
      vertex -5.66312 4.1145 12
      vertex -8.09017 5.87785 0
      vertex -6.39482 2.84716 12
    endloop
  endfacet
  facet normal 0 0 1
    outer loop
      vertex 4 0 12
      vertex 7 0 12
      vertex 6.84703 1.45538 12
    endloop
  endfacet
  facet normal 0 0 1
    outer loop
      vertex 3.91259 0.831646 12
      vertex 6.84703 1.45538 12
      vertex 6.39482 2.84716 12
    endloop
  endfacet
  facet normal 0 0 1
    outer loop
      vertex 7 0 12
      vertex 4 0 12
      vertex 6.84703 -1.45538 12
    endloop
  endfacet
  facet normal 0 0 1
    outer loop
      vertex 3.65418 1.62695 12
      vertex 6.39482 2.84716 12
      vertex 5.66312 4.1145 12
    endloop
  endfacet
  facet normal -0 0 1
    outer loop
      vertex 3.91259 -0.831646 12
      vertex 6.84703 -1.45538 12
      vertex 4 0 12
    endloop
  endfacet
  facet normal 0 0 1
    outer loop
      vertex 3.23607 2.35114 12
      vertex 5.66312 4.1145 12
      vertex 4.68391 5.20201 12
    endloop
  endfacet
  facet normal 0 0 1
    outer loop
      vertex 6.84703 -1.45538 12
      vertex 3.91259 -0.831646 12
      vertex 6.39482 -2.84716 12
    endloop
  endfacet
  facet normal -0 0 1
    outer loop
      vertex 3.65418 -1.62695 12
      vertex 6.39482 -2.84716 12
      vertex 3.91259 -0.831646 12
    endloop
  endfacet
  facet normal 0 0 1
    outer loop
      vertex 6.84703 1.45538 12
      vertex 3.91259 0.831646 12
      vertex 4 0 12
    endloop
  endfacet
  facet normal 0 0 1
    outer loop
      vertex 6.39482 2.84716 12
      vertex 3.65418 1.62695 12
      vertex 3.91259 0.831646 12
    endloop
  endfacet
  facet normal 0 0 1
    outer loop
      vertex 2.67652 2.97258 12
      vertex 4.68391 5.20201 12
      vertex 3.5 6.06218 12
    endloop
  endfacet
  facet normal 0 0 1
    outer loop
      vertex 5.66312 4.1145 12
      vertex 3.23607 2.35114 12
      vertex 3.65418 1.62695 12
    endloop
  endfacet
  facet normal 0 0 1
    outer loop
      vertex 4.68391 5.20201 12
      vertex 2.67652 2.97258 12
      vertex 3.23607 2.35114 12
    endloop
  endfacet
  facet normal 0 0 1
    outer loop
      vertex 2 3.4641 12
      vertex 3.5 6.06218 12
      vertex 2.16312 6.6574 12
    endloop
  endfacet
  facet normal 0 0 1
    outer loop
      vertex 3.5 6.06218 12
      vertex 2 3.4641 12
      vertex 2.67652 2.97258 12
    endloop
  endfacet
  facet normal 0 0 1
    outer loop
      vertex 2.16312 6.6574 12
      vertex 1.23607 3.80423 12
      vertex 2 3.4641 12
    endloop
  endfacet
  facet normal 0 0 1
    outer loop
      vertex 0.731699 6.96165 12
      vertex 1.23607 3.80423 12
      vertex 2.16312 6.6574 12
    endloop
  endfacet
  facet normal 0 0 1
    outer loop
      vertex 0.731699 6.96165 12
      vertex 0.418114 3.97809 12
      vertex 1.23607 3.80423 12
    endloop
  endfacet
  facet normal 0 0 1
    outer loop
      vertex 0.731699 6.96165 12
      vertex -0.418114 3.97809 12
      vertex 0.418114 3.97809 12
    endloop
  endfacet
  facet normal -0 0 1
    outer loop
      vertex -0.731699 6.96165 12
      vertex -0.418114 3.97809 12
      vertex 0.731699 6.96165 12
    endloop
  endfacet
  facet normal 0 0 1
    outer loop
      vertex -0.731699 6.96165 12
      vertex -1.23607 3.80423 12
      vertex -0.418114 3.97809 12
    endloop
  endfacet
  facet normal -0 0 1
    outer loop
      vertex -2.16312 6.6574 12
      vertex -1.23607 3.80423 12
      vertex -0.731699 6.96165 12
    endloop
  endfacet
  facet normal 0 0 1
    outer loop
      vertex -1.23607 3.80423 12
      vertex -2.16312 6.6574 12
      vertex -2 3.4641 12
    endloop
  endfacet
  facet normal -0 0 1
    outer loop
      vertex -3.5 6.06218 12
      vertex -2 3.4641 12
      vertex -2.16312 6.6574 12
    endloop
  endfacet
  facet normal 0 0 1
    outer loop
      vertex -2 3.4641 12
      vertex -3.5 6.06218 12
      vertex -2.67652 2.97258 12
    endloop
  endfacet
  facet normal -0 0 1
    outer loop
      vertex -4.68391 5.20201 12
      vertex -2.67652 2.97258 12
      vertex -3.5 6.06218 12
    endloop
  endfacet
  facet normal 0 0 1
    outer loop
      vertex -2.67652 2.97258 12
      vertex -4.68391 5.20201 12
      vertex -3.23607 2.35114 12
    endloop
  endfacet
  facet normal -0 0 1
    outer loop
      vertex -5.66312 4.1145 12
      vertex -3.23607 2.35114 12
      vertex -4.68391 5.20201 12
    endloop
  endfacet
  facet normal 0 0 1
    outer loop
      vertex -3.23607 2.35114 12
      vertex -5.66312 4.1145 12
      vertex -3.65418 1.62695 12
    endloop
  endfacet
  facet normal -0 0 1
    outer loop
      vertex -6.39482 2.84716 12
      vertex -3.65418 1.62695 12
      vertex -5.66312 4.1145 12
    endloop
  endfacet
  facet normal 0 0 1
    outer loop
      vertex 6.39482 -2.84716 12
      vertex 3.65418 -1.62695 12
      vertex 5.66312 -4.1145 12
    endloop
  endfacet
  facet normal -0 0 1
    outer loop
      vertex 3.23607 -2.35114 12
      vertex 5.66312 -4.1145 12
      vertex 3.65418 -1.62695 12
    endloop
  endfacet
  facet normal 0 0 1
    outer loop
      vertex 5.66312 -4.1145 12
      vertex 3.23607 -2.35114 12
      vertex 4.68391 -5.20201 12
    endloop
  endfacet
  facet normal -0 0 1
    outer loop
      vertex 2.67652 -2.97258 12
      vertex 4.68391 -5.20201 12
      vertex 3.23607 -2.35114 12
    endloop
  endfacet
  facet normal 0 0 1
    outer loop
      vertex 4.68391 -5.20201 12
      vertex 2.67652 -2.97258 12
      vertex 3.5 -6.06218 12
    endloop
  endfacet
  facet normal -0 0 1
    outer loop
      vertex 2 -3.4641 12
      vertex 3.5 -6.06218 12
      vertex 2.67652 -2.97258 12
    endloop
  endfacet
  facet normal 0 0 1
    outer loop
      vertex 3.5 -6.06218 12
      vertex 2 -3.4641 12
      vertex 2.16312 -6.6574 12
    endloop
  endfacet
  facet normal -0 0 1
    outer loop
      vertex 1.23607 -3.80423 12
      vertex 2.16312 -6.6574 12
      vertex 2 -3.4641 12
    endloop
  endfacet
  facet normal 0 0 1
    outer loop
      vertex 1.23607 -3.80423 12
      vertex 0.731699 -6.96165 12
      vertex 2.16312 -6.6574 12
    endloop
  endfacet
  facet normal -0 0 1
    outer loop
      vertex 0.418114 -3.97809 12
      vertex 0.731699 -6.96165 12
      vertex 1.23607 -3.80423 12
    endloop
  endfacet
  facet normal -0 0 1
    outer loop
      vertex -0.418114 -3.97809 12
      vertex 0.731699 -6.96165 12
      vertex 0.418114 -3.97809 12
    endloop
  endfacet
  facet normal 0 0 1
    outer loop
      vertex -0.418114 -3.97809 12
      vertex -0.731699 -6.96165 12
      vertex 0.731699 -6.96165 12
    endloop
  endfacet
  facet normal 0 0 1
    outer loop
      vertex -1.23607 -3.80423 12
      vertex -0.731699 -6.96165 12
      vertex -0.418114 -3.97809 12
    endloop
  endfacet
  facet normal 0 0 1
    outer loop
      vertex -2.16312 -6.6574 12
      vertex -1.23607 -3.80423 12
      vertex -2 -3.4641 12
    endloop
  endfacet
  facet normal 0 0 1
    outer loop
      vertex -1.23607 -3.80423 12
      vertex -2.16312 -6.6574 12
      vertex -0.731699 -6.96165 12
    endloop
  endfacet
  facet normal 0 0 1
    outer loop
      vertex -3.5 -6.06218 12
      vertex -2 -3.4641 12
      vertex -2.67652 -2.97258 12
    endloop
  endfacet
  facet normal 0 0 1
    outer loop
      vertex -4.68391 -5.20201 12
      vertex -2.67652 -2.97258 12
      vertex -3.23607 -2.35114 12
    endloop
  endfacet
  facet normal 0 0 1
    outer loop
      vertex -2 -3.4641 12
      vertex -3.5 -6.06218 12
      vertex -2.16312 -6.6574 12
    endloop
  endfacet
  facet normal 0 0 1
    outer loop
      vertex -5.66312 -4.1145 12
      vertex -3.23607 -2.35114 12
      vertex -3.65418 -1.62695 12
    endloop
  endfacet
  facet normal 0 0 1
    outer loop
      vertex -6.39482 -2.84716 12
      vertex -3.65418 -1.62695 12
      vertex -3.91259 -0.831646 12
    endloop
  endfacet
  facet normal 0 0 1
    outer loop
      vertex -6.84703 -1.45538 12
      vertex -3.91259 -0.831646 12
      vertex -4 0 12
    endloop
  endfacet
  facet normal 0 0 1
    outer loop
      vertex -3.65418 1.62695 12
      vertex -6.39482 2.84716 12
      vertex -3.91259 0.831646 12
    endloop
  endfacet
  facet normal 0 0 1
    outer loop
      vertex -2.67652 -2.97258 12
      vertex -4.68391 -5.20201 12
      vertex -3.5 -6.06218 12
    endloop
  endfacet
  facet normal -0 0 1
    outer loop
      vertex -6.84703 1.45538 12
      vertex -3.91259 0.831646 12
      vertex -6.39482 2.84716 12
    endloop
  endfacet
  facet normal 0 0 1
    outer loop
      vertex -3.23607 -2.35114 12
      vertex -5.66312 -4.1145 12
      vertex -4.68391 -5.20201 12
    endloop
  endfacet
  facet normal 0 0 1
    outer loop
      vertex -3.91259 0.831646 12
      vertex -6.84703 1.45538 12
      vertex -4 0 12
    endloop
  endfacet
  facet normal 0 0 1
    outer loop
      vertex -3.65418 -1.62695 12
      vertex -6.39482 -2.84716 12
      vertex -5.66312 -4.1145 12
    endloop
  endfacet
  facet normal 0 0 1
    outer loop
      vertex -7 0 12
      vertex -4 0 12
      vertex -6.84703 1.45538 12
    endloop
  endfacet
  facet normal 0 0 1
    outer loop
      vertex -3.91259 -0.831646 12
      vertex -6.84703 -1.45538 12
      vertex -6.39482 -2.84716 12
    endloop
  endfacet
  facet normal 0 0 1
    outer loop
      vertex -4 0 12
      vertex -7 0 12
      vertex -6.84703 -1.45538 12
    endloop
  endfacet
  facet normal -0.922957 0.299887 0.241285
    outer loop
      vertex -6.39482 2.84716 12
      vertex -9.13545 4.06737 0
      vertex -6.84703 1.45538 12
    endloop
  endfacet
  facet normal -0.570419 -0.785114 0.241285
    outer loop
      vertex -3.5 -6.06218 12
      vertex -6.69131 -7.43145 0
      vertex -5 -8.66025 0
    endloop
  endfacet
  facet normal 0 0 -1
    outer loop
      vertex 2 0 0
      vertex 10 0 0
      vertex 9.78148 -2.07912 0
    endloop
  endfacet
  facet normal 0 0 -1
    outer loop
      vertex 1.9563 -0.415823 0
      vertex 9.78148 -2.07912 0
      vertex 9.13545 -4.06737 0
    endloop
  endfacet
  facet normal 0 0 -1
    outer loop
      vertex 10 0 0
      vertex 2 0 0
      vertex 9.78148 2.07912 0
    endloop
  endfacet
  facet normal 0 0 -1
    outer loop
      vertex 1.82709 -0.813473 0
      vertex 9.13545 -4.06737 0
      vertex 8.09017 -5.87785 0
    endloop
  endfacet
  facet normal 0 0 -1
    outer loop
      vertex 1.9563 0.415823 0
      vertex 9.78148 2.07912 0
      vertex 2 0 0
    endloop
  endfacet
  facet normal 0 0 -1
    outer loop
      vertex 1.61803 -1.17557 0
      vertex 8.09017 -5.87785 0
      vertex 6.69131 -7.43145 0
    endloop
  endfacet
  facet normal -0 0 -1
    outer loop
      vertex 9.78148 2.07912 0
      vertex 1.9563 0.415823 0
      vertex 9.13545 4.06737 0
    endloop
  endfacet
  facet normal 0 0 -1
    outer loop
      vertex 1.33826 -1.48629 0
      vertex 6.69131 -7.43145 0
      vertex 5 -8.66025 0
    endloop
  endfacet
  facet normal 0 0 -1
    outer loop
      vertex 1.82709 0.813473 0
      vertex 9.13545 4.06737 0
      vertex 1.9563 0.415823 0
    endloop
  endfacet
  facet normal 0 0 -1
    outer loop
      vertex 1 -1.73205 0
      vertex 5 -8.66025 0
      vertex 3.09017 -9.51056 0
    endloop
  endfacet
  facet normal -0 0 -1
    outer loop
      vertex 9.13545 4.06737 0
      vertex 1.82709 0.813473 0
      vertex 8.09017 5.87785 0
    endloop
  endfacet
  facet normal 0 0 -1
    outer loop
      vertex 1.61803 1.17557 0
      vertex 8.09017 5.87785 0
      vertex 1.82709 0.813473 0
    endloop
  endfacet
  facet normal 0 0 -1
    outer loop
      vertex 9.78148 -2.07912 0
      vertex 1.9563 -0.415823 0
      vertex 2 0 0
    endloop
  endfacet
  facet normal 0 0 -1
    outer loop
      vertex 9.13545 -4.06737 0
      vertex 1.82709 -0.813473 0
      vertex 1.9563 -0.415823 0
    endloop
  endfacet
  facet normal 0 0 -1
    outer loop
      vertex 8.09017 -5.87785 0
      vertex 1.61803 -1.17557 0
      vertex 1.82709 -0.813473 0
    endloop
  endfacet
  facet normal 0 0 -1
    outer loop
      vertex 6.69131 -7.43145 0
      vertex 1.33826 -1.48629 0
      vertex 1.61803 -1.17557 0
    endloop
  endfacet
  facet normal 0 0 -1
    outer loop
      vertex 0.618033 -1.90211 0
      vertex 3.09017 -9.51056 0
      vertex 1.04528 -9.94522 0
    endloop
  endfacet
  facet normal 0 0 -1
    outer loop
      vertex 5 -8.66025 0
      vertex 1 -1.73205 0
      vertex 1.33826 -1.48629 0
    endloop
  endfacet
  facet normal 0 0 -1
    outer loop
      vertex 3.09017 -9.51056 0
      vertex 0.618033 -1.90211 0
      vertex 1 -1.73205 0
    endloop
  endfacet
  facet normal 0 0 -1
    outer loop
      vertex 1.04528 -9.94522 0
      vertex 0.209057 -1.98904 0
      vertex 0.618033 -1.90211 0
    endloop
  endfacet
  facet normal 0 0 -1
    outer loop
      vertex 1.04528 -9.94522 0
      vertex -0.209057 -1.98904 0
      vertex 0.209057 -1.98904 0
    endloop
  endfacet
  facet normal 0 0 -1
    outer loop
      vertex -1.04528 -9.94522 0
      vertex -0.209057 -1.98904 0
      vertex 1.04528 -9.94522 0
    endloop
  endfacet
  facet normal -0 0 -1
    outer loop
      vertex -0.209057 -1.98904 0
      vertex -1.04528 -9.94522 0
      vertex -0.618033 -1.90211 0
    endloop
  endfacet
  facet normal 0 0 -1
    outer loop
      vertex -3.09017 -9.51056 0
      vertex -0.618033 -1.90211 0
      vertex -1.04528 -9.94522 0
    endloop
  endfacet
  facet normal -0 0 -1
    outer loop
      vertex -0.618033 -1.90211 0
      vertex -3.09017 -9.51056 0
      vertex -1 -1.73205 0
    endloop
  endfacet
  facet normal 0 0 -1
    outer loop
      vertex -5 -8.66025 0
      vertex -1 -1.73205 0
      vertex -3.09017 -9.51056 0
    endloop
  endfacet
  facet normal -0 0 -1
    outer loop
      vertex -1 -1.73205 0
      vertex -5 -8.66025 0
      vertex -1.33826 -1.48629 0
    endloop
  endfacet
  facet normal 0 0 -1
    outer loop
      vertex -6.69131 -7.43145 0
      vertex -1.33826 -1.48629 0
      vertex -5 -8.66025 0
    endloop
  endfacet
  facet normal -0 0 -1
    outer loop
      vertex -1.33826 -1.48629 0
      vertex -6.69131 -7.43145 0
      vertex -1.61803 -1.17557 0
    endloop
  endfacet
  facet normal 0 0 -1
    outer loop
      vertex -8.09017 -5.87785 0
      vertex -1.61803 -1.17557 0
      vertex -6.69131 -7.43145 0
    endloop
  endfacet
  facet normal -0 0 -1
    outer loop
      vertex 8.09017 5.87785 0
      vertex 1.61803 1.17557 0
      vertex 6.69131 7.43145 0
    endloop
  endfacet
  facet normal 0 0 -1
    outer loop
      vertex 1.33826 1.48629 0
      vertex 6.69131 7.43145 0
      vertex 1.61803 1.17557 0
    endloop
  endfacet
  facet normal -0 0 -1
    outer loop
      vertex 6.69131 7.43145 0
      vertex 1.33826 1.48629 0
      vertex 5 8.66025 0
    endloop
  endfacet
  facet normal 0 0 -1
    outer loop
      vertex 1 1.73205 0
      vertex 5 8.66025 0
      vertex 1.33826 1.48629 0
    endloop
  endfacet
  facet normal -0 0 -1
    outer loop
      vertex 5 8.66025 0
      vertex 1 1.73205 0
      vertex 3.09017 9.51056 0
    endloop
  endfacet
  facet normal 0 0 -1
    outer loop
      vertex 0.618033 1.90211 0
      vertex 3.09017 9.51056 0
      vertex 1 1.73205 0
    endloop
  endfacet
  facet normal -0 0 -1
    outer loop
      vertex 3.09017 9.51056 0
      vertex 0.618033 1.90211 0
      vertex 1.04528 9.94522 0
    endloop
  endfacet
  facet normal 0 0 -1
    outer loop
      vertex 0.209057 1.98904 0
      vertex 1.04528 9.94522 0
      vertex 0.618033 1.90211 0
    endloop
  endfacet
  facet normal 0 0 -1
    outer loop
      vertex -0.209057 1.98904 0
      vertex 1.04528 9.94522 0
      vertex 0.209057 1.98904 0
    endloop
  endfacet
  facet normal 0 0 -1
    outer loop
      vertex -1.04528 9.94522 0
      vertex -0.209057 1.98904 0
      vertex -0.618033 1.90211 0
    endloop
  endfacet
  facet normal 0 0 -1
    outer loop
      vertex -3.09017 9.51056 0
      vertex -0.618033 1.90211 0
      vertex -0.999999 1.73205 0
    endloop
  endfacet
  facet normal 0 0 -1
    outer loop
      vertex -0.209057 1.98904 0
      vertex -1.04528 9.94522 0
      vertex 1.04528 9.94522 0
    endloop
  endfacet
  facet normal 0 0 -1
    outer loop
      vertex -5 8.66025 0
      vertex -0.999999 1.73205 0
      vertex -1.33826 1.48629 0
    endloop
  endfacet
  facet normal 0 0 -1
    outer loop
      vertex -6.69131 7.43145 0
      vertex -1.33826 1.48629 0
      vertex -1.61803 1.17557 0
    endloop
  endfacet
  facet normal 0 0 -1
    outer loop
      vertex -8.09017 5.87785 0
      vertex -1.61803 1.17557 0
      vertex -1.82709 0.813473 0
    endloop
  endfacet
  facet normal 0 0 -1
    outer loop
      vertex -9.13545 4.06737 0
      vertex -1.82709 0.813473 0
      vertex -1.9563 0.415823 0
    endloop
  endfacet
  facet normal 0 0 -1
    outer loop
      vertex -9.78148 2.07912 0
      vertex -1.9563 0.415823 0
      vertex -2 0 0
    endloop
  endfacet
  facet normal -0 0 -1
    outer loop
      vertex -1.61803 -1.17557 0
      vertex -8.09017 -5.87785 0
      vertex -1.82709 -0.813473 0
    endloop
  endfacet
  facet normal 0 0 -1
    outer loop
      vertex -0.618033 1.90211 0
      vertex -3.09017 9.51056 0
      vertex -1.04528 9.94522 0
    endloop
  endfacet
  facet normal 0 0 -1
    outer loop
      vertex -0.999999 1.73205 0
      vertex -5 8.66025 0
      vertex -3.09017 9.51056 0
    endloop
  endfacet
  facet normal 0 0 -1
    outer loop
      vertex -9.13545 -4.06737 0
      vertex -1.82709 -0.813473 0
      vertex -8.09017 -5.87785 0
    endloop
  endfacet
  facet normal -0 0 -1
    outer loop
      vertex -1.82709 -0.813473 0
      vertex -9.13545 -4.06737 0
      vertex -1.9563 -0.415823 0
    endloop
  endfacet
  facet normal 0 0 -1
    outer loop
      vertex -1.33826 1.48629 0
      vertex -6.69131 7.43145 0
      vertex -5 8.66025 0
    endloop
  endfacet
  facet normal 0 0 -1
    outer loop
      vertex -9.78148 -2.07912 0
      vertex -1.9563 -0.415823 0
      vertex -9.13545 -4.06737 0
    endloop
  endfacet
  facet normal 0 0 -1
    outer loop
      vertex -1.61803 1.17557 0
      vertex -8.09017 5.87785 0
      vertex -6.69131 7.43145 0
    endloop
  endfacet
  facet normal -0 0 -1
    outer loop
      vertex -1.9563 -0.415823 0
      vertex -9.78148 -2.07912 0
      vertex -2 0 0
    endloop
  endfacet
  facet normal 0 0 -1
    outer loop
      vertex -1.82709 0.813473 0
      vertex -9.13545 4.06737 0
      vertex -8.09017 5.87785 0
    endloop
  endfacet
  facet normal 0 0 -1
    outer loop
      vertex -10 0 0
      vertex -2 0 0
      vertex -9.78148 -2.07912 0
    endloop
  endfacet
  facet normal 0 0 -1
    outer loop
      vertex -1.9563 0.415823 0
      vertex -9.78148 2.07912 0
      vertex -9.13545 4.06737 0
    endloop
  endfacet
  facet normal 0 0 -1
    outer loop
      vertex -2 0 0
      vertex -10 0 0
      vertex -9.78148 2.07912 0
    endloop
  endfacet
  facet normal -0.965138 -0.101441 0.241285
    outer loop
      vertex -7 0 12
      vertex -9.78148 -2.07912 0
      vertex -6.84703 -1.45538 12
    endloop
  endfacet
  facet normal -0.840438 -0.485227 0.241285
    outer loop
      vertex -6.39482 -2.84716 12
      vertex -8.09017 -5.87785 0
      vertex -5.66312 -4.1145 12
    endloop
  endfacet
  facet normal -0.721188 -0.649361 0.241285
    outer loop
      vertex -5.66312 -4.1145 12
      vertex -8.09017 -5.87785 0
      vertex -4.68391 -5.20201 12
    endloop
  endfacet
  facet normal -0.201769 -0.949248 0.241285
    outer loop
      vertex -2.16312 -6.6574 12
      vertex -3.09017 -9.51056 0
      vertex -0.731699 -6.96165 12
    endloop
  endfacet
  facet normal -0.394719 -0.886554 0.241285
    outer loop
      vertex -2.16312 -6.6574 12
      vertex -3.5 -6.06218 12
      vertex -3.09017 -9.51056 0
    endloop
  endfacet
  facet normal -0.394719 -0.886554 0.241285
    outer loop
      vertex -3.5 -6.06218 12
      vertex -5 -8.66025 0
      vertex -3.09017 -9.51056 0
    endloop
  endfacet
  facet normal 0.394719 -0.886554 0.241285
    outer loop
      vertex 3.5 -6.06218 12
      vertex 2.16312 -6.6574 12
      vertex 3.09017 -9.51056 0
    endloop
  endfacet
  facet normal 0 0.970454 0.241285
    outer loop
      vertex 1.04528 9.94522 0
      vertex -0.731699 6.96165 12
      vertex 0.731699 6.96165 12
    endloop
  endfacet
  facet normal 0 0.970454 0.241285
    outer loop
      vertex -0.731699 6.96165 12
      vertex 1.04528 9.94522 0
      vertex -1.04528 9.94522 0
    endloop
  endfacet
  facet normal 0.965138 0.101441 0.241285
    outer loop
      vertex 9.78148 2.07912 0
      vertex 6.84703 1.45538 12
      vertex 7 0 12
    endloop
  endfacet
  facet normal 0.840438 0.485227 0.241285
    outer loop
      vertex 8.09017 5.87785 0
      vertex 5.66312 4.1145 12
      vertex 6.39482 2.84716 12
    endloop
  endfacet
  facet normal 0.922957 -0.299887 0.241285
    outer loop
      vertex 6.84703 -1.45538 12
      vertex 6.39482 -2.84716 12
      vertex 9.13545 -4.06737 0
    endloop
  endfacet
  facet normal -0.922957 -0.299887 0.241285
    outer loop
      vertex -6.84703 -1.45538 12
      vertex -9.78148 -2.07912 0
      vertex -9.13545 -4.06737 0
    endloop
  endfacet
  facet normal -0.965138 -0.101441 0.241285
    outer loop
      vertex -7 0 12
      vertex -10 0 0
      vertex -9.78148 -2.07912 0
    endloop
  endfacet
  facet normal 0 -0.970454 0.241285
    outer loop
      vertex -1.04528 -9.94522 0
      vertex 0.731699 -6.96165 12
      vertex -0.731699 -6.96165 12
    endloop
  endfacet
  facet normal 0 -0.970454 0.241285
    outer loop
      vertex 0.731699 -6.96165 12
      vertex -1.04528 -9.94522 0
      vertex 1.04528 -9.94522 0
    endloop
  endfacet
  facet normal 0.394719 -0.886554 0.241285
    outer loop
      vertex 3.5 -6.06218 12
      vertex 3.09017 -9.51056 0
      vertex 5 -8.66025 0
    endloop
  endfacet
  facet normal 0.570419 -0.785114 0.241285
    outer loop
      vertex 6.69131 -7.43145 0
      vertex 3.5 -6.06218 12
      vertex 5 -8.66025 0
    endloop
  endfacet
  facet normal 0.922957 -0.299887 0.241285
    outer loop
      vertex 9.78148 -2.07912 0
      vertex 6.84703 -1.45538 12
      vertex 9.13545 -4.06737 0
    endloop
  endfacet
  facet normal 0.965138 -0.101441 0.241285
    outer loop
      vertex 7 0 12
      vertex 6.84703 -1.45538 12
      vertex 9.78148 -2.07912 0
    endloop
  endfacet
  facet normal -0.922957 -0.299887 0.241285
    outer loop
      vertex -6.84703 -1.45538 12
      vertex -9.13545 -4.06737 0
      vertex -6.39482 -2.84716 12
    endloop
  endfacet
  facet normal 0.201769 -0.949248 0.241285
    outer loop
      vertex 3.09017 -9.51056 0
      vertex 0.731699 -6.96165 12
      vertex 1.04528 -9.94522 0
    endloop
  endfacet
  facet normal 0.201769 -0.949248 0.241285
    outer loop
      vertex 2.16312 -6.6574 12
      vertex 0.731699 -6.96165 12
      vertex 3.09017 -9.51056 0
    endloop
  endfacet
  facet normal 0.570419 -0.785114 0.241285
    outer loop
      vertex 4.68391 -5.20201 12
      vertex 3.5 -6.06218 12
      vertex 6.69131 -7.43145 0
    endloop
  endfacet
  facet normal -0.866026 -0.499999 0
    outer loop
      vertex 1.82709 0.813473 0
      vertex 1.61803 1.17557 5
      vertex 1.61803 1.17557 0
    endloop
  endfacet
  facet normal -0.866026 -0.499999 0
    outer loop
      vertex 1.61803 1.17557 5
      vertex 1.82709 0.813473 0
      vertex 1.82709 0.813473 5
    endloop
  endfacet
  facet normal 0.994522 -0.104529 0
    outer loop
      vertex -2 0 5
      vertex -1.9563 0.415823 0
      vertex -1.9563 0.415823 5
    endloop
  endfacet
  facet normal 0.994522 -0.104529 0
    outer loop
      vertex -1.9563 0.415823 0
      vertex -2 0 5
      vertex -2 0 0
    endloop
  endfacet
  facet normal -0.743144 -0.669131 0
    outer loop
      vertex 1.61803 1.17557 0
      vertex 1.33826 1.48629 5
      vertex 1.33826 1.48629 0
    endloop
  endfacet
  facet normal -0.743144 -0.669131 0
    outer loop
      vertex 1.33826 1.48629 5
      vertex 1.61803 1.17557 0
      vertex 1.61803 1.17557 5
    endloop
  endfacet
  facet normal 0.406739 -0.913545 0
    outer loop
      vertex -0.999999 1.73205 0
      vertex -0.618033 1.90211 5
      vertex -0.999999 1.73205 5
    endloop
  endfacet
  facet normal 0.406739 -0.913545 0
    outer loop
      vertex -0.618033 1.90211 5
      vertex -0.999999 1.73205 0
      vertex -0.618033 1.90211 0
    endloop
  endfacet
  facet normal 0.951056 -0.309018 0
    outer loop
      vertex -1.9563 0.415823 5
      vertex -1.82709 0.813473 0
      vertex -1.82709 0.813473 5
    endloop
  endfacet
  facet normal 0.951056 -0.309018 0
    outer loop
      vertex -1.82709 0.813473 0
      vertex -1.9563 0.415823 5
      vertex -1.9563 0.415823 0
    endloop
  endfacet
  facet normal -0.994522 0.104529 0
    outer loop
      vertex 1.9563 -0.415823 0
      vertex 2 0 5
      vertex 2 0 0
    endloop
  endfacet
  facet normal -0.994522 0.104529 0
    outer loop
      vertex 2 0 5
      vertex 1.9563 -0.415823 0
      vertex 1.9563 -0.415823 5
    endloop
  endfacet
  facet normal -0.951056 -0.309018 0
    outer loop
      vertex 1.9563 0.415823 0
      vertex 1.82709 0.813473 5
      vertex 1.82709 0.813473 0
    endloop
  endfacet
  facet normal -0.951056 -0.309018 0
    outer loop
      vertex 1.82709 0.813473 5
      vertex 1.9563 0.415823 0
      vertex 1.9563 0.415823 5
    endloop
  endfacet
  facet normal -0.587786 -0.809017 0
    outer loop
      vertex 1 1.73205 0
      vertex 1.33826 1.48629 5
      vertex 1 1.73205 5
    endloop
  endfacet
  facet normal -0.587786 -0.809017 -0
    outer loop
      vertex 1.33826 1.48629 5
      vertex 1 1.73205 0
      vertex 1.33826 1.48629 0
    endloop
  endfacet
  facet normal 0 -1 0
    outer loop
      vertex -0.209057 1.98904 0
      vertex 0.209057 1.98904 5
      vertex -0.209057 1.98904 5
    endloop
  endfacet
  facet normal 0 -1 -0
    outer loop
      vertex 0.209057 1.98904 5
      vertex -0.209057 1.98904 0
      vertex 0.209057 1.98904 0
    endloop
  endfacet
  facet normal -0.406738 -0.913545 0
    outer loop
      vertex 0.618033 1.90211 0
      vertex 1 1.73205 5
      vertex 0.618033 1.90211 5
    endloop
  endfacet
  facet normal -0.406738 -0.913545 -0
    outer loop
      vertex 1 1.73205 5
      vertex 0.618033 1.90211 0
      vertex 1 1.73205 0
    endloop
  endfacet
  facet normal 0.866026 -0.499999 0
    outer loop
      vertex -1.82709 0.813473 5
      vertex -1.61803 1.17557 0
      vertex -1.61803 1.17557 5
    endloop
  endfacet
  facet normal 0.866026 -0.499999 0
    outer loop
      vertex -1.61803 1.17557 0
      vertex -1.82709 0.813473 5
      vertex -1.82709 0.813473 0
    endloop
  endfacet
  facet normal 0.587784 -0.809018 0
    outer loop
      vertex -1.33826 1.48629 0
      vertex -0.999999 1.73205 5
      vertex -1.33826 1.48629 5
    endloop
  endfacet
  facet normal 0.587784 -0.809018 0
    outer loop
      vertex -0.999999 1.73205 5
      vertex -1.33826 1.48629 0
      vertex -0.999999 1.73205 0
    endloop
  endfacet
  facet normal 0.207911 -0.978148 0
    outer loop
      vertex -0.618033 1.90211 0
      vertex -0.209057 1.98904 5
      vertex -0.618033 1.90211 5
    endloop
  endfacet
  facet normal 0.207911 -0.978148 0
    outer loop
      vertex -0.209057 1.98904 5
      vertex -0.618033 1.90211 0
      vertex -0.209057 1.98904 0
    endloop
  endfacet
  facet normal 0.743144 -0.669131 0
    outer loop
      vertex -1.61803 1.17557 5
      vertex -1.33826 1.48629 0
      vertex -1.33826 1.48629 5
    endloop
  endfacet
  facet normal 0.743144 -0.669131 0
    outer loop
      vertex -1.33826 1.48629 0
      vertex -1.61803 1.17557 5
      vertex -1.61803 1.17557 0
    endloop
  endfacet
  facet normal -0.994522 -0.104529 0
    outer loop
      vertex 2 0 0
      vertex 1.9563 0.415823 5
      vertex 1.9563 0.415823 0
    endloop
  endfacet
  facet normal -0.994522 -0.104529 0
    outer loop
      vertex 1.9563 0.415823 5
      vertex 2 0 0
      vertex 2 0 5
    endloop
  endfacet
  facet normal 0.207911 0.978148 -0
    outer loop
      vertex -0.209057 -1.98904 0
      vertex -0.618033 -1.90211 5
      vertex -0.209057 -1.98904 5
    endloop
  endfacet
  facet normal 0.207911 0.978148 0
    outer loop
      vertex -0.618033 -1.90211 5
      vertex -0.209057 -1.98904 0
      vertex -0.618033 -1.90211 0
    endloop
  endfacet
  facet normal 0.994522 0.104529 0
    outer loop
      vertex -1.9563 -0.415823 5
      vertex -2 0 0
      vertex -2 0 5
    endloop
  endfacet
  facet normal 0.994522 0.104529 0
    outer loop
      vertex -2 0 0
      vertex -1.9563 -0.415823 5
      vertex -1.9563 -0.415823 0
    endloop
  endfacet
  facet normal 0.951056 0.309018 0
    outer loop
      vertex -1.82709 -0.813473 5
      vertex -1.9563 -0.415823 0
      vertex -1.9563 -0.415823 5
    endloop
  endfacet
  facet normal 0.951056 0.309018 0
    outer loop
      vertex -1.9563 -0.415823 0
      vertex -1.82709 -0.813473 5
      vertex -1.82709 -0.813473 0
    endloop
  endfacet
  facet normal -0.587786 0.809017 0
    outer loop
      vertex 1.33826 -1.48629 0
      vertex 1 -1.73205 5
      vertex 1.33826 -1.48629 5
    endloop
  endfacet
  facet normal -0.587786 0.809017 0
    outer loop
      vertex 1 -1.73205 5
      vertex 1.33826 -1.48629 0
      vertex 1 -1.73205 0
    endloop
  endfacet
  facet normal -0.207911 -0.978148 0
    outer loop
      vertex 0.209057 1.98904 0
      vertex 0.618033 1.90211 5
      vertex 0.209057 1.98904 5
    endloop
  endfacet
  facet normal -0.207911 -0.978148 -0
    outer loop
      vertex 0.618033 1.90211 5
      vertex 0.209057 1.98904 0
      vertex 0.618033 1.90211 0
    endloop
  endfacet
  facet normal -0.951056 0.309018 0
    outer loop
      vertex 1.82709 -0.813473 0
      vertex 1.9563 -0.415823 5
      vertex 1.9563 -0.415823 0
    endloop
  endfacet
  facet normal -0.951056 0.309018 0
    outer loop
      vertex 1.9563 -0.415823 5
      vertex 1.82709 -0.813473 0
      vertex 1.82709 -0.813473 5
    endloop
  endfacet
  facet normal -0.866026 0.499999 0
    outer loop
      vertex 1.61803 -1.17557 0
      vertex 1.82709 -0.813473 5
      vertex 1.82709 -0.813473 0
    endloop
  endfacet
  facet normal -0.866026 0.499999 0
    outer loop
      vertex 1.82709 -0.813473 5
      vertex 1.61803 -1.17557 0
      vertex 1.61803 -1.17557 5
    endloop
  endfacet
  facet normal -0.207911 0.978148 0
    outer loop
      vertex 0.618033 -1.90211 0
      vertex 0.209057 -1.98904 5
      vertex 0.618033 -1.90211 5
    endloop
  endfacet
  facet normal -0.207911 0.978148 0
    outer loop
      vertex 0.209057 -1.98904 5
      vertex 0.618033 -1.90211 0
      vertex 0.209057 -1.98904 0
    endloop
  endfacet
  facet normal -0.406738 0.913545 0
    outer loop
      vertex 1 -1.73205 0
      vertex 0.618033 -1.90211 5
      vertex 1 -1.73205 5
    endloop
  endfacet
  facet normal -0.406738 0.913545 0
    outer loop
      vertex 0.618033 -1.90211 5
      vertex 1 -1.73205 0
      vertex 0.618033 -1.90211 0
    endloop
  endfacet
  facet normal -0.743144 0.669131 0
    outer loop
      vertex 1.33826 -1.48629 0
      vertex 1.61803 -1.17557 5
      vertex 1.61803 -1.17557 0
    endloop
  endfacet
  facet normal -0.743144 0.669131 0
    outer loop
      vertex 1.61803 -1.17557 5
      vertex 1.33826 -1.48629 0
      vertex 1.33826 -1.48629 5
    endloop
  endfacet
  facet normal 0.743144 0.669131 0
    outer loop
      vertex -1.33826 -1.48629 5
      vertex -1.61803 -1.17557 0
      vertex -1.61803 -1.17557 5
    endloop
  endfacet
  facet normal 0.743144 0.669131 0
    outer loop
      vertex -1.61803 -1.17557 0
      vertex -1.33826 -1.48629 5
      vertex -1.33826 -1.48629 0
    endloop
  endfacet
  facet normal 0.866026 0.499999 0
    outer loop
      vertex -1.61803 -1.17557 5
      vertex -1.82709 -0.813473 0
      vertex -1.82709 -0.813473 5
    endloop
  endfacet
  facet normal 0.866026 0.499999 0
    outer loop
      vertex -1.82709 -0.813473 0
      vertex -1.61803 -1.17557 5
      vertex -1.61803 -1.17557 0
    endloop
  endfacet
  facet normal 0.406738 0.913545 -0
    outer loop
      vertex -0.618033 -1.90211 0
      vertex -1 -1.73205 5
      vertex -0.618033 -1.90211 5
    endloop
  endfacet
  facet normal 0.406738 0.913545 0
    outer loop
      vertex -1 -1.73205 5
      vertex -0.618033 -1.90211 0
      vertex -1 -1.73205 0
    endloop
  endfacet
  facet normal 0 1 -0
    outer loop
      vertex 0.209057 -1.98904 0
      vertex -0.209057 -1.98904 5
      vertex 0.209057 -1.98904 5
    endloop
  endfacet
  facet normal 0 1 0
    outer loop
      vertex -0.209057 -1.98904 5
      vertex 0.209057 -1.98904 0
      vertex -0.209057 -1.98904 0
    endloop
  endfacet
  facet normal 0.587786 0.809017 -0
    outer loop
      vertex -1 -1.73205 0
      vertex -1.33826 -1.48629 5
      vertex -1 -1.73205 5
    endloop
  endfacet
  facet normal 0.587786 0.809017 0
    outer loop
      vertex -1.33826 -1.48629 5
      vertex -1 -1.73205 0
      vertex -1.33826 -1.48629 0
    endloop
  endfacet
  facet normal -0.994522 -0.104529 0
    outer loop
      vertex 4 0 5
      vertex 3.91259 0.831646 12
      vertex 3.91259 0.831646 5
    endloop
  endfacet
  facet normal -0.994522 -0.104529 0
    outer loop
      vertex 3.91259 0.831646 12
      vertex 4 0 5
      vertex 4 0 12
    endloop
  endfacet
  facet normal 0.994522 -0.104529 0
    outer loop
      vertex -4 0 12
      vertex -3.91259 0.831646 5
      vertex -3.91259 0.831646 12
    endloop
  endfacet
  facet normal 0.994522 -0.104529 0
    outer loop
      vertex -3.91259 0.831646 5
      vertex -4 0 12
      vertex -4 0 5
    endloop
  endfacet
  facet normal 0 -1 0
    outer loop
      vertex -0.418114 3.97809 5
      vertex 0.418114 3.97809 12
      vertex -0.418114 3.97809 12
    endloop
  endfacet
  facet normal 0 -1 -0
    outer loop
      vertex 0.418114 3.97809 12
      vertex -0.418114 3.97809 5
      vertex 0.418114 3.97809 5
    endloop
  endfacet
  facet normal 0 1 -0
    outer loop
      vertex 0.418114 -3.97809 5
      vertex -0.418114 -3.97809 12
      vertex 0.418114 -3.97809 12
    endloop
  endfacet
  facet normal 0 1 0
    outer loop
      vertex -0.418114 -3.97809 12
      vertex 0.418114 -3.97809 5
      vertex -0.418114 -3.97809 5
    endloop
  endfacet
  facet normal -0.743145 -0.669131 0
    outer loop
      vertex 3.23607 2.35114 5
      vertex 2.67652 2.97258 12
      vertex 2.67652 2.97258 5
    endloop
  endfacet
  facet normal -0.743145 -0.669131 0
    outer loop
      vertex 2.67652 2.97258 12
      vertex 3.23607 2.35114 5
      vertex 3.23607 2.35114 12
    endloop
  endfacet
  facet normal 0.743145 -0.669131 0
    outer loop
      vertex -3.23607 2.35114 12
      vertex -2.67652 2.97258 5
      vertex -2.67652 2.97258 12
    endloop
  endfacet
  facet normal 0.743145 -0.669131 0
    outer loop
      vertex -2.67652 2.97258 5
      vertex -3.23607 2.35114 12
      vertex -3.23607 2.35114 5
    endloop
  endfacet
  facet normal 0.866026 -0.5 0
    outer loop
      vertex -3.65418 1.62695 12
      vertex -3.23607 2.35114 5
      vertex -3.23607 2.35114 12
    endloop
  endfacet
  facet normal 0.866026 -0.5 0
    outer loop
      vertex -3.23607 2.35114 5
      vertex -3.65418 1.62695 12
      vertex -3.65418 1.62695 5
    endloop
  endfacet
  facet normal 0.406738 -0.913545 0
    outer loop
      vertex -2 3.4641 5
      vertex -1.23607 3.80423 12
      vertex -2 3.4641 12
    endloop
  endfacet
  facet normal 0.406738 -0.913545 0
    outer loop
      vertex -1.23607 3.80423 12
      vertex -2 3.4641 5
      vertex -1.23607 3.80423 5
    endloop
  endfacet
  facet normal -0.951057 0.309017 0
    outer loop
      vertex 3.65418 -1.62695 5
      vertex 3.91259 -0.831646 12
      vertex 3.91259 -0.831646 5
    endloop
  endfacet
  facet normal -0.951057 0.309017 0
    outer loop
      vertex 3.91259 -0.831646 12
      vertex 3.65418 -1.62695 5
      vertex 3.65418 -1.62695 12
    endloop
  endfacet
  facet normal -0.866026 -0.5 0
    outer loop
      vertex 3.65418 1.62695 5
      vertex 3.23607 2.35114 12
      vertex 3.23607 2.35114 5
    endloop
  endfacet
  facet normal -0.866026 -0.5 0
    outer loop
      vertex 3.23607 2.35114 12
      vertex 3.65418 1.62695 5
      vertex 3.65418 1.62695 12
    endloop
  endfacet
  facet normal -0.951057 -0.309017 0
    outer loop
      vertex 3.91259 0.831646 5
      vertex 3.65418 1.62695 12
      vertex 3.65418 1.62695 5
    endloop
  endfacet
  facet normal -0.951057 -0.309017 0
    outer loop
      vertex 3.65418 1.62695 12
      vertex 3.91259 0.831646 5
      vertex 3.91259 0.831646 12
    endloop
  endfacet
  facet normal -0.406737 -0.913545 0
    outer loop
      vertex 1.23607 3.80423 5
      vertex 2 3.4641 12
      vertex 1.23607 3.80423 12
    endloop
  endfacet
  facet normal -0.406737 -0.913545 -0
    outer loop
      vertex 2 3.4641 12
      vertex 1.23607 3.80423 5
      vertex 2 3.4641 5
    endloop
  endfacet
  facet normal -0.207912 -0.978148 0
    outer loop
      vertex 0.418114 3.97809 5
      vertex 1.23607 3.80423 12
      vertex 0.418114 3.97809 12
    endloop
  endfacet
  facet normal -0.207912 -0.978148 -0
    outer loop
      vertex 1.23607 3.80423 12
      vertex 0.418114 3.97809 5
      vertex 1.23607 3.80423 5
    endloop
  endfacet
  facet normal -0.587785 -0.809017 0
    outer loop
      vertex 2 3.4641 5
      vertex 2.67652 2.97258 12
      vertex 2 3.4641 12
    endloop
  endfacet
  facet normal -0.587785 -0.809017 -0
    outer loop
      vertex 2.67652 2.97258 12
      vertex 2 3.4641 5
      vertex 2.67652 2.97258 5
    endloop
  endfacet
  facet normal 0.951057 -0.309017 0
    outer loop
      vertex -3.91259 0.831646 12
      vertex -3.65418 1.62695 5
      vertex -3.65418 1.62695 12
    endloop
  endfacet
  facet normal 0.951057 -0.309017 0
    outer loop
      vertex -3.65418 1.62695 5
      vertex -3.91259 0.831646 12
      vertex -3.91259 0.831646 5
    endloop
  endfacet
  facet normal 0.587784 -0.809018 0
    outer loop
      vertex -2.67652 2.97258 5
      vertex -2 3.4641 12
      vertex -2.67652 2.97258 12
    endloop
  endfacet
  facet normal 0.587784 -0.809018 0
    outer loop
      vertex -2 3.4641 12
      vertex -2.67652 2.97258 5
      vertex -2 3.4641 5
    endloop
  endfacet
  facet normal 0.207912 -0.978148 0
    outer loop
      vertex -1.23607 3.80423 5
      vertex -0.418114 3.97809 12
      vertex -1.23607 3.80423 12
    endloop
  endfacet
  facet normal 0.207912 -0.978148 0
    outer loop
      vertex -0.418114 3.97809 12
      vertex -1.23607 3.80423 5
      vertex -0.418114 3.97809 5
    endloop
  endfacet
  facet normal -0.994522 0.104529 0
    outer loop
      vertex 3.91259 -0.831646 5
      vertex 4 0 12
      vertex 4 0 5
    endloop
  endfacet
  facet normal -0.994522 0.104529 0
    outer loop
      vertex 4 0 12
      vertex 3.91259 -0.831646 5
      vertex 3.91259 -0.831646 12
    endloop
  endfacet
  facet normal 0 0 1
    outer loop
      vertex 3.91259 0.831646 5
      vertex 1.9563 0.415823 5
      vertex 2 0 5
    endloop
  endfacet
  facet normal 0 0 1
    outer loop
      vertex 2.67652 2.97258 5
      vertex 1.82709 0.813473 5
      vertex 1.9563 0.415823 5
    endloop
  endfacet
  facet normal 0 0 1
    outer loop
      vertex 2.67652 2.97258 5
      vertex 1.61803 1.17557 5
      vertex 1.82709 0.813473 5
    endloop
  endfacet
  facet normal 0 0 1
    outer loop
      vertex 2.67652 2.97258 5
      vertex 1.33826 1.48629 5
      vertex 1.61803 1.17557 5
    endloop
  endfacet
  facet normal 0 0 1
    outer loop
      vertex 1 1.73205 5
      vertex 2 3.4641 5
      vertex 1.23607 3.80423 5
    endloop
  endfacet
  facet normal 0 0 1
    outer loop
      vertex 2 3.4641 5
      vertex 1 1.73205 5
      vertex 1.33826 1.48629 5
    endloop
  endfacet
  facet normal 0 0 1
    outer loop
      vertex 1.23607 3.80423 5
      vertex 0.618033 1.90211 5
      vertex 1 1.73205 5
    endloop
  endfacet
  facet normal 0 0 1
    outer loop
      vertex 0.418114 3.97809 5
      vertex 0.618033 1.90211 5
      vertex 1.23607 3.80423 5
    endloop
  endfacet
  facet normal 0 0 1
    outer loop
      vertex 0.418114 3.97809 5
      vertex 0.209057 1.98904 5
      vertex 0.618033 1.90211 5
    endloop
  endfacet
  facet normal 0 0 1
    outer loop
      vertex 0.418114 3.97809 5
      vertex -0.209057 1.98904 5
      vertex 0.209057 1.98904 5
    endloop
  endfacet
  facet normal -0 0 1
    outer loop
      vertex -0.418114 3.97809 5
      vertex -0.209057 1.98904 5
      vertex 0.418114 3.97809 5
    endloop
  endfacet
  facet normal 0 0 1
    outer loop
      vertex -0.418114 3.97809 5
      vertex -0.618033 1.90211 5
      vertex -0.209057 1.98904 5
    endloop
  endfacet
  facet normal -0 0 1
    outer loop
      vertex -1.23607 3.80423 5
      vertex -0.618033 1.90211 5
      vertex -0.418114 3.97809 5
    endloop
  endfacet
  facet normal 0 0 1
    outer loop
      vertex -0.618033 1.90211 5
      vertex -1.23607 3.80423 5
      vertex -0.999999 1.73205 5
    endloop
  endfacet
  facet normal -0 0 1
    outer loop
      vertex -2 3.4641 5
      vertex -0.999999 1.73205 5
      vertex -1.23607 3.80423 5
    endloop
  endfacet
  facet normal 0 0 1
    outer loop
      vertex -0.999999 1.73205 5
      vertex -2 3.4641 5
      vertex -1.33826 1.48629 5
    endloop
  endfacet
  facet normal -0 0 1
    outer loop
      vertex -2.67652 2.97258 5
      vertex -1.33826 1.48629 5
      vertex -2 3.4641 5
    endloop
  endfacet
  facet normal 0 0 1
    outer loop
      vertex -1.33826 1.48629 5
      vertex -2.67652 2.97258 5
      vertex -1.61803 1.17557 5
    endloop
  endfacet
  facet normal -0 0 1
    outer loop
      vertex -3.23607 2.35114 5
      vertex -1.61803 1.17557 5
      vertex -2.67652 2.97258 5
    endloop
  endfacet
  facet normal 0 0 1
    outer loop
      vertex -1.61803 1.17557 5
      vertex -3.23607 2.35114 5
      vertex -1.82709 0.813473 5
    endloop
  endfacet
  facet normal -0 0 1
    outer loop
      vertex -3.65418 1.62695 5
      vertex -1.82709 0.813473 5
      vertex -3.23607 2.35114 5
    endloop
  endfacet
  facet normal 0 0 1
    outer loop
      vertex -1.82709 0.813473 5
      vertex -3.65418 1.62695 5
      vertex -1.9563 0.415823 5
    endloop
  endfacet
  facet normal 0 0 1
    outer loop
      vertex -2 0 5
      vertex -2.67652 -2.97258 5
      vertex -2 -3.4641 5
    endloop
  endfacet
  facet normal -0 0 1
    outer loop
      vertex -3.91259 0.831646 5
      vertex -1.9563 0.415823 5
      vertex -3.65418 1.62695 5
    endloop
  endfacet
  facet normal 0 0 1
    outer loop
      vertex -2 0 5
      vertex -3.23607 -2.35114 5
      vertex -2.67652 -2.97258 5
    endloop
  endfacet
  facet normal 0 0 1
    outer loop
      vertex -1.9563 0.415823 5
      vertex -3.91259 0.831646 5
      vertex -2 0 5
    endloop
  endfacet
  facet normal 0 0 1
    outer loop
      vertex -2 0 5
      vertex -3.65418 -1.62695 5
      vertex -3.23607 -2.35114 5
    endloop
  endfacet
  facet normal 0 0 1
    outer loop
      vertex -4 0 5
      vertex -2 0 5
      vertex -3.91259 0.831646 5
    endloop
  endfacet
  facet normal 0 0 1
    outer loop
      vertex -2 0 5
      vertex -3.91259 -0.831646 5
      vertex -3.65418 -1.62695 5
    endloop
  endfacet
  facet normal 0 0 1
    outer loop
      vertex -2 0 5
      vertex -4 0 5
      vertex -3.91259 -0.831646 5
    endloop
  endfacet
  facet normal 0 0 1
    outer loop
      vertex 2 0 5
      vertex 4 0 5
      vertex 3.91259 0.831646 5
    endloop
  endfacet
  facet normal 0 0 1
    outer loop
      vertex 1.9563 0.415823 5
      vertex 3.91259 0.831646 5
      vertex 3.65418 1.62695 5
    endloop
  endfacet
  facet normal 0 0 1
    outer loop
      vertex 4 0 5
      vertex 2 0 5
      vertex 3.91259 -0.831646 5
    endloop
  endfacet
  facet normal 0 0 1
    outer loop
      vertex 1.9563 0.415823 5
      vertex 3.65418 1.62695 5
      vertex 3.23607 2.35114 5
    endloop
  endfacet
  facet normal -0 0 1
    outer loop
      vertex 1.9563 -0.415823 5
      vertex 3.91259 -0.831646 5
      vertex 2 0 5
    endloop
  endfacet
  facet normal 0 0 1
    outer loop
      vertex 1.9563 0.415823 5
      vertex 3.23607 2.35114 5
      vertex 2.67652 2.97258 5
    endloop
  endfacet
  facet normal 0 0 1
    outer loop
      vertex 3.91259 -0.831646 5
      vertex 1.9563 -0.415823 5
      vertex 3.65418 -1.62695 5
    endloop
  endfacet
  facet normal 0 0 1
    outer loop
      vertex 1.33826 1.48629 5
      vertex 2.67652 2.97258 5
      vertex 2 3.4641 5
    endloop
  endfacet
  facet normal -0 0 1
    outer loop
      vertex 1.82709 -0.813473 5
      vertex 3.65418 -1.62695 5
      vertex 1.9563 -0.415823 5
    endloop
  endfacet
  facet normal 0 0 1
    outer loop
      vertex 3.65418 -1.62695 5
      vertex 1.82709 -0.813473 5
      vertex 3.23607 -2.35114 5
    endloop
  endfacet
  facet normal -0 0 1
    outer loop
      vertex 1.61803 -1.17557 5
      vertex 3.23607 -2.35114 5
      vertex 1.82709 -0.813473 5
    endloop
  endfacet
  facet normal 0 0 1
    outer loop
      vertex 3.23607 -2.35114 5
      vertex 1.61803 -1.17557 5
      vertex 2.67652 -2.97258 5
    endloop
  endfacet
  facet normal -0 0 1
    outer loop
      vertex 1.33826 -1.48629 5
      vertex 2.67652 -2.97258 5
      vertex 1.61803 -1.17557 5
    endloop
  endfacet
  facet normal 0 0 1
    outer loop
      vertex 2.67652 -2.97258 5
      vertex 1.33826 -1.48629 5
      vertex 2 -3.4641 5
    endloop
  endfacet
  facet normal -0 0 1
    outer loop
      vertex 1 -1.73205 5
      vertex 2 -3.4641 5
      vertex 1.33826 -1.48629 5
    endloop
  endfacet
  facet normal 0 0 1
    outer loop
      vertex 2 -3.4641 5
      vertex 1 -1.73205 5
      vertex 1.23607 -3.80423 5
    endloop
  endfacet
  facet normal -0 0 1
    outer loop
      vertex 0.618033 -1.90211 5
      vertex 1.23607 -3.80423 5
      vertex 1 -1.73205 5
    endloop
  endfacet
  facet normal 0 0 1
    outer loop
      vertex 0.618033 -1.90211 5
      vertex 0.418114 -3.97809 5
      vertex 1.23607 -3.80423 5
    endloop
  endfacet
  facet normal -0 0 1
    outer loop
      vertex 0.209057 -1.98904 5
      vertex 0.418114 -3.97809 5
      vertex 0.618033 -1.90211 5
    endloop
  endfacet
  facet normal -0 0 1
    outer loop
      vertex -0.209057 -1.98904 5
      vertex 0.418114 -3.97809 5
      vertex 0.209057 -1.98904 5
    endloop
  endfacet
  facet normal 0 0 1
    outer loop
      vertex -0.209057 -1.98904 5
      vertex -0.418114 -3.97809 5
      vertex 0.418114 -3.97809 5
    endloop
  endfacet
  facet normal 0 0 1
    outer loop
      vertex -0.618033 -1.90211 5
      vertex -0.418114 -3.97809 5
      vertex -0.209057 -1.98904 5
    endloop
  endfacet
  facet normal 0 0 1
    outer loop
      vertex -1.23607 -3.80423 5
      vertex -0.618033 -1.90211 5
      vertex -1 -1.73205 5
    endloop
  endfacet
  facet normal 0 0 1
    outer loop
      vertex -0.618033 -1.90211 5
      vertex -1.23607 -3.80423 5
      vertex -0.418114 -3.97809 5
    endloop
  endfacet
  facet normal 0 0 1
    outer loop
      vertex -2 -3.4641 5
      vertex -1 -1.73205 5
      vertex -1.33826 -1.48629 5
    endloop
  endfacet
  facet normal 0 0 1
    outer loop
      vertex -2 -3.4641 5
      vertex -1.33826 -1.48629 5
      vertex -1.61803 -1.17557 5
    endloop
  endfacet
  facet normal 0 0 1
    outer loop
      vertex -2 -3.4641 5
      vertex -1.61803 -1.17557 5
      vertex -1.82709 -0.813473 5
    endloop
  endfacet
  facet normal 0 0 1
    outer loop
      vertex -2 -3.4641 5
      vertex -1.82709 -0.813473 5
      vertex -1.9563 -0.415823 5
    endloop
  endfacet
  facet normal 0 0 1
    outer loop
      vertex -1 -1.73205 5
      vertex -2 -3.4641 5
      vertex -1.23607 -3.80423 5
    endloop
  endfacet
  facet normal 0 0 1
    outer loop
      vertex -2 -3.4641 5
      vertex -1.9563 -0.415823 5
      vertex -2 0 5
    endloop
  endfacet
  facet normal -0.207912 0.978148 0
    outer loop
      vertex 1.23607 -3.80423 5
      vertex 0.418114 -3.97809 12
      vertex 1.23607 -3.80423 12
    endloop
  endfacet
  facet normal -0.207912 0.978148 0
    outer loop
      vertex 0.418114 -3.97809 12
      vertex 1.23607 -3.80423 5
      vertex 0.418114 -3.97809 5
    endloop
  endfacet
  facet normal -0.866026 0.5 0
    outer loop
      vertex 3.23607 -2.35114 5
      vertex 3.65418 -1.62695 12
      vertex 3.65418 -1.62695 5
    endloop
  endfacet
  facet normal -0.866026 0.5 0
    outer loop
      vertex 3.65418 -1.62695 12
      vertex 3.23607 -2.35114 5
      vertex 3.23607 -2.35114 12
    endloop
  endfacet
  facet normal 0.866026 0.5 0
    outer loop
      vertex -3.23607 -2.35114 12
      vertex -3.65418 -1.62695 5
      vertex -3.65418 -1.62695 12
    endloop
  endfacet
  facet normal 0.866026 0.5 0
    outer loop
      vertex -3.65418 -1.62695 5
      vertex -3.23607 -2.35114 12
      vertex -3.23607 -2.35114 5
    endloop
  endfacet
  facet normal -0.587785 0.809017 0
    outer loop
      vertex 2.67652 -2.97258 5
      vertex 2 -3.4641 12
      vertex 2.67652 -2.97258 12
    endloop
  endfacet
  facet normal -0.587785 0.809017 0
    outer loop
      vertex 2 -3.4641 12
      vertex 2.67652 -2.97258 5
      vertex 2 -3.4641 5
    endloop
  endfacet
  facet normal -0.406737 0.913545 0
    outer loop
      vertex 2 -3.4641 5
      vertex 1.23607 -3.80423 12
      vertex 2 -3.4641 12
    endloop
  endfacet
  facet normal -0.406737 0.913545 0
    outer loop
      vertex 1.23607 -3.80423 12
      vertex 2 -3.4641 5
      vertex 1.23607 -3.80423 5
    endloop
  endfacet
  facet normal 0.743145 0.669131 0
    outer loop
      vertex -2.67652 -2.97258 12
      vertex -3.23607 -2.35114 5
      vertex -3.23607 -2.35114 12
    endloop
  endfacet
  facet normal 0.743145 0.669131 0
    outer loop
      vertex -3.23607 -2.35114 5
      vertex -2.67652 -2.97258 12
      vertex -2.67652 -2.97258 5
    endloop
  endfacet
  facet normal 0.951057 0.309017 0
    outer loop
      vertex -3.65418 -1.62695 12
      vertex -3.91259 -0.831646 5
      vertex -3.91259 -0.831646 12
    endloop
  endfacet
  facet normal 0.951057 0.309017 0
    outer loop
      vertex -3.91259 -0.831646 5
      vertex -3.65418 -1.62695 12
      vertex -3.65418 -1.62695 5
    endloop
  endfacet
  facet normal 0.994522 0.104529 0
    outer loop
      vertex -3.91259 -0.831646 12
      vertex -4 0 5
      vertex -4 0 12
    endloop
  endfacet
  facet normal 0.994522 0.104529 0
    outer loop
      vertex -4 0 5
      vertex -3.91259 -0.831646 12
      vertex -3.91259 -0.831646 5
    endloop
  endfacet
  facet normal -0.743145 0.669131 0
    outer loop
      vertex 2.67652 -2.97258 5
      vertex 3.23607 -2.35114 12
      vertex 3.23607 -2.35114 5
    endloop
  endfacet
  facet normal -0.743145 0.669131 0
    outer loop
      vertex 3.23607 -2.35114 12
      vertex 2.67652 -2.97258 5
      vertex 2.67652 -2.97258 12
    endloop
  endfacet
  facet normal 0.406737 0.913545 -0
    outer loop
      vertex -1.23607 -3.80423 5
      vertex -2 -3.4641 12
      vertex -1.23607 -3.80423 12
    endloop
  endfacet
  facet normal 0.406737 0.913545 0
    outer loop
      vertex -2 -3.4641 12
      vertex -1.23607 -3.80423 5
      vertex -2 -3.4641 5
    endloop
  endfacet
  facet normal 0.587785 0.809017 -0
    outer loop
      vertex -2 -3.4641 5
      vertex -2.67652 -2.97258 12
      vertex -2 -3.4641 12
    endloop
  endfacet
  facet normal 0.587785 0.809017 0
    outer loop
      vertex -2.67652 -2.97258 12
      vertex -2 -3.4641 5
      vertex -2.67652 -2.97258 5
    endloop
  endfacet
  facet normal 0.207912 0.978148 -0
    outer loop
      vertex -0.418114 -3.97809 5
      vertex -1.23607 -3.80423 12
      vertex -0.418114 -3.97809 12
    endloop
  endfacet
  facet normal 0.207912 0.978148 0
    outer loop
      vertex -1.23607 -3.80423 12
      vertex -0.418114 -3.97809 5
      vertex -1.23607 -3.80423 5
    endloop
  endfacet
endsolid OpenSCAD_Model
